<svg viewBox="0 0 172 67" xmlns="http://www.w3.org/2000/svg"><defs><path id="a" d="M0 5154h1400V.196H0z"/></defs><g fill="none" fill-rule="evenodd"><path class="main-text" d="M6.967 7.127v4.852h15.927v6.392H6.967V29.23H0V.735h22.894v6.392zM61.254 29.807c-8.39 0-15.127-6.508-15.127-14.94 0-8.549 6.89-14.67 15.242-14.67 6.16 0 12.51 4.004 14.242 10.088h-8.16c-1.309-2.35-3.579-3.697-6.274-3.697-4.657 0-7.776 3.773-7.776 8.28 0 4.658 2.964 8.547 7.814 8.547 3.118 0 5.928-1.425 6.813-4.583h-8.506v-5.814H76.42c.038.5.038 1.001.038 1.502 0 8.742-6.467 15.287-15.204 15.287M98.294 29.23V17.832H88.98V29.23h-7.275V.735h7.275v10.704h9.315V.736h7.275V29.23zM125.19 7.127V29.23h-7.273V7.127h-8.315V.735h23.865v6.392z"/><path fill="#FA0050" d="M48.082 65.657L27.444.735h7.082l20.678 64.922z"/><path class="main-text" d="M74.57 54.067h-7.539v5.198h7.5c1.81 0 3.426-.616 3.426-2.734 0-2.041-1.693-2.464-3.387-2.464m-.847-10.513h-6.692v4.429h6.654c1.578 0 2.886-.462 2.886-2.272 0-1.81-1.347-2.157-2.848-2.157m8.584 19.638c-2.926 2.504-5.62 2.465-9.315 2.465H60.064V37.162h12.66c3.424 0 6.657.039 9.121 2.773 1.193 1.31 1.693 2.926 1.693 4.697 0 2.427-1.193 4.544-3.31 5.738 3.118 1.078 4.696 3.389 4.696 6.623 0 2.272-.847 4.698-2.617 6.199M100.747 46.019H100.63l-2.925 9.742h5.966l-2.925-9.742zm6.235 19.638l-1.385-4.12h-9.892l-1.502 4.12H86.39l11.43-28.494h5.737l11.316 28.494h-7.891zM129.887 66.196c-8.275 0-15.011-6.469-15.011-14.825 0-8.356 6.658-14.748 14.934-14.748 5.159 0 9.7 2.387 12.548 6.7.925 1.387 1.656 3.003 1.925 4.66h-7.62c-1.117-2.927-3.696-4.968-6.89-4.968-4.62 0-7.623 3.928-7.623 8.317 0 4.39 3.003 8.471 7.66 8.471 3.196 0 5.582-2.002 6.852-4.813h7.621c-1.654 6.74-7.505 11.206-14.395 11.206M163.494 65.657l-7.775-12.322h-.078v12.322h-7.274V37.162h7.274v12.823h.078l8.044-12.823h7.621l-9.43 14.209L172 65.657z"/></g></svg>