<?xml version="1.0" encoding="UTF-8"?>
<svg viewBox="0 0 1400 120" preserveAspectRatio="none" version="1.1" xmlns="http://www.w3.org/2000/svg" xmlns:xlink="http://www.w3.org/1999/xlink">
    <!-- Generator: Sketch 55.1 (78136) - https://sketchapp.com -->
    <title>Fill 61</title>
    <desc>Created with Sketch.</desc>
    <g id="Page-1" stroke="none" stroke-width="1"  fill-rule="evenodd">

                    <path d="M159.1532,20.9258 C159.4942,20.3008 159.8742,19.6018 160.2552,18.9028 C160.3382,18.9248 160.4222,18.9458 160.5042,18.9668 C160.5092,19.3908 160.5142,19.8148 160.5172,20.0228 C160.7112,20.1618 160.8792,20.2768 161.0472,20.3928 C160.6532,20.8058 159.9042,21.1418 159.3482,21.1548 C159.3182,21.1558 159.2882,21.1548 159.2572,21.1548 C159.2212,21.0758 159.1892,21.0058 159.1532,20.9258 L159.1532,20.9258 Z M1076.0392,92.1618 C1076.7962,91.1838 1077.7292,91.0558 1078.9752,91.7878 C1078.8752,91.9548 1078.7822,92.1398 1078.6892,92.3258 C1077.8122,92.2158 1076.9272,92.1708 1076.0392,92.1618 L1076.0392,92.1618 Z M1079.0262,91.8058 C1079.9052,91.7148 1080.7852,91.6228 1081.6642,91.5318 C1081.7132,91.6868 1081.7612,91.8428 1081.8102,91.9978 C1081.4212,92.2528 1081.0472,92.4978 1080.6972,92.7278 C1080.3072,92.6138 1079.9162,92.5138 1079.5232,92.4408 C1079.3452,92.2138 1079.1822,92.0068 1079.0262,91.8058 L1079.0262,91.8058 Z M1098.0262,94.3438 C1098.3662,93.7198 1098.7472,93.0208 1099.1282,92.3218 C1099.2112,92.3428 1099.2942,92.3638 1099.3772,92.3848 C1099.3822,92.8098 1099.3872,93.2328 1099.3902,93.4418 C1099.9032,93.8088 1100.3162,94.0648 1100.6802,94.3728 C1101.7422,95.2678 1102.9442,94.8728 1103.3152,93.5108 C1103.7582,93.5328 1104.3572,93.4188 1104.5692,93.6438 C1104.8322,93.9228 1104.9712,94.7448 1104.7752,94.9168 C1104.1982,95.4198 1103.5382,95.8488 1102.8532,96.2178 C1101.3732,95.8408 1099.8822,95.4988 1098.3932,95.1548 C1098.2702,94.8828 1098.1542,94.6268 1098.0262,94.3438 L1098.0262,94.3438 Z M1104.6322,96.8248 C1104.8802,96.5358 1105.1272,96.2468 1105.3752,95.9558 C1105.7702,96.0738 1106.2442,96.2148 1106.5752,96.3138 C1106.5422,96.5688 1106.4872,96.8528 1106.4342,97.1258 C1106.1362,97.1968 1105.6382,97.1528 1105.3222,97.0718 C1105.0862,97.0118 1104.8612,96.9138 1104.6322,96.8248 L1104.6322,96.8248 Z M1103.2812,93.4938 C1102.5832,93.6818 1101.8842,93.8698 1101.1862,94.0568 C1101.4212,93.3938 1101.7992,92.8958 1102.3072,92.6518 C1103.1992,92.2238 1103.6322,92.5008 1103.2812,93.4938 L1103.2812,93.4938 Z M0.0002,120.1968 L1400.0002,120.1968 L1400.0002,117.9518 C1397.6592,116.8798 1395.1532,117.1188 1392.5632,117.9158 C1392.3312,117.9878 1391.9832,117.9918 1391.7992,117.8728 C1389.3162,116.2538 1386.7142,116.4788 1383.9892,117.3068 C1383.3442,117.5028 1382.5262,117.1758 1381.7932,117.0558 C1379.2162,116.6328 1376.6302,116.2418 1374.0682,115.7478 C1371.5602,115.2648 1369.0452,115.1238 1366.5862,114.0178 C1364.1752,112.9318 1361.2432,112.5978 1358.5262,112.5778 C1357.3922,112.5688 1356.1412,114.1438 1355.0982,115.1488 C1354.3372,115.8828 1353.8492,116.8488 1352.7072,115.6708 C1352.5532,115.5118 1352.0392,115.5118 1351.7912,115.6328 C1350.2702,116.3748 1348.7972,116.2608 1347.1372,116.0218 C1345.5712,115.7958 1344.7262,115.1898 1344.4612,113.8668 C1344.2712,112.9178 1343.8422,112.6698 1342.9392,112.7638 C1341.0582,112.9598 1339.4322,112.4448 1337.7572,111.5508 C1336.3632,110.8078 1334.5952,110.7128 1333.0002,110.3048 C1332.2362,110.1098 1331.3832,110.0088 1330.7552,109.6038 C1328.7832,108.3318 1326.6102,108.4998 1324.4432,108.7198 C1323.9602,108.7698 1323.5282,109.3478 1322.9712,109.7568 C1322.8492,109.6788 1322.5472,109.5928 1322.4472,109.4058 C1321.7602,108.1138 1320.8872,108.4178 1319.9592,109.1278 C1318.3472,110.3638 1317.4242,110.3688 1315.7922,109.1498 C1314.9982,108.5568 1314.1852,107.9878 1313.3922,107.3938 C1311.7832,106.1868 1310.0302,105.8328 1308.0002,106.3268 C1307.0902,106.5488 1306.0842,106.3978 1305.1222,106.3948 C1301.2552,106.3838 1297.3842,106.4178 1293.5202,106.3108 C1292.5532,106.2838 1291.6202,105.7328 1290.6452,105.5378 C1289.8382,105.3758 1288.8902,105.1178 1288.1842,105.3748 C1286.9772,105.8128 1286.1322,105.4228 1285.1562,104.9238 C1284.4872,104.5828 1283.7002,104.4268 1282.9462,104.2708 C1281.5642,103.9848 1279.9502,104.0998 1278.8232,103.4378 C1276.5902,102.1268 1274.5942,102.2268 1272.4162,103.4148 C1272.0532,103.6128 1271.4162,103.5898 1271.0162,103.4248 C1268.2792,102.2938 1265.2462,103.2038 1262.5232,102.3898 C1260.8482,101.8888 1259.4602,102.0818 1257.9242,102.6658 C1257.4462,102.8478 1256.7582,102.5908 1256.1942,102.4448 C1254.0952,101.9038 1252.0742,101.8908 1249.8762,102.3718 C1248.4272,102.6888 1246.6562,102.1748 1245.1862,101.6428 C1242.8572,100.7998 1240.9942,102.1358 1238.9442,102.5688 C1238.0422,102.7598 1237.1832,103.1418 1236.2752,103.4468 C1235.7992,101.8318 1234.6042,102.3298 1233.4962,102.3628 C1232.7302,102.3858 1231.9592,102.1078 1231.1902,101.9648 C1230.8442,101.8998 1230.4952,101.7638 1230.1542,101.7838 C1228.3612,101.8898 1226.5722,102.0588 1224.7792,102.1408 C1224.4962,102.1538 1224.0692,101.9018 1223.9342,101.6558 C1223.1172,100.1628 1221.7202,99.8878 1220.1582,99.8948 C1219.8622,99.8958 1219.5662,99.8698 1219.2692,99.8688 C1218.0502,99.8648 1216.7302,99.1298 1215.7172,100.5828 C1215.5222,100.8628 1214.5002,100.7188 1213.9022,100.5938 C1213.5402,100.5178 1213.0832,99.8128 1212.9672,99.8798 C1210.7712,101.1458 1209.1682,98.8718 1207.1132,99.0868 C1205.7752,99.2268 1204.2502,99.2378 1203.2742,97.9228 C1203.1482,97.7538 1202.7842,97.6778 1202.5312,97.6808 C1199.6492,97.7108 1196.7602,96.4168 1193.8692,97.8718 C1193.4052,98.1058 1192.7052,98.0488 1192.1562,97.9408 C1190.5122,97.6168 1188.8892,97.2008 1187.1642,96.7988 C1187.0942,97.0088 1186.9482,97.2818 1186.9192,97.5638 C1186.7862,98.8328 1186.1392,98.8098 1185.1292,98.3888 C1184.0102,97.9238 1182.8202,97.6138 1181.6602,97.2408 C1181.5082,97.1918 1181.3152,97.0888 1181.1962,97.1378 C1178.8512,98.1258 1177.1812,96.9568 1175.3072,95.8158 C1174.3802,95.2508 1172.8542,95.5828 1171.5982,95.5238 C1170.9242,95.4918 1170.2402,95.5418 1169.5752,95.4598 C1168.6472,95.3448 1167.7402,95.0848 1166.8112,94.9868 C1165.4492,94.8418 1164.0782,94.7308 1162.7082,94.7018 C1159.7062,94.6408 1156.7212,94.1608 1153.6922,94.8668 C1151.5042,95.3768 1149.3002,96.0208 1146.9952,94.8078 C1145.9152,94.2388 1144.3042,94.7438 1143.1772,93.8188 C1143.0822,93.7408 1142.8252,93.7438 1142.7062,93.8118 C1140.4422,95.1138 1138.0272,94.2248 1135.7462,94.1288 C1133.8852,94.0498 1132.1742,94.0108 1130.4862,94.7768 C1129.5902,95.1828 1128.6602,95.5598 1127.8522,96.0998 C1126.7302,96.8498 1125.5582,96.5598 1125.1892,95.6288 C1124.0972,95.2028 1123.2872,94.7308 1122.4162,94.5898 C1121.4722,94.4378 1120.3932,94.3738 1119.5132,94.6708 C1118.3522,95.0628 1117.5822,94.9688 1116.8682,94.0218 C1116.0812,92.9788 1115.1322,92.8828 1113.9062,93.5088 C1113.3982,93.7678 1112.5972,93.5878 1111.9582,93.4708 C1111.2972,93.3508 1110.6752,93.0488 1110.0262,92.8588 C1109.6222,92.7408 1109.1822,92.7258 1108.7862,92.5918 C1106.9492,91.9718 1105.1662,91.0718 1103.2732,90.7778 C1101.9662,90.5758 1100.4692,91.0698 1099.1372,91.4958 C1098.1372,91.8158 1097.3822,92.3188 1096.1502,91.9258 C1094.9052,91.5268 1093.4242,91.7968 1091.7302,91.7688 C1092.2602,92.6458 1092.6572,93.3028 1093.0082,93.8858 C1092.6892,94.0848 1092.3442,94.2998 1091.9992,94.5148 C1091.5202,94.4708 1091.0382,94.4378 1090.5732,94.3338 C1088.9112,93.9638 1087.2672,93.5388 1085.5832,93.3968 C1085.8052,92.5238 1086.0122,91.7038 1086.2842,90.6328 C1085.4872,90.6958 1084.5132,90.7728 1083.3652,90.8648 C1083.6782,91.2398 1083.9332,91.5458 1084.1882,91.8518 C1084.0342,91.9748 1083.8792,92.0978 1083.7242,92.2208 C1083.2422,91.6758 1082.7602,91.1298 1082.3702,90.6878 C1080.8402,90.4268 1079.2872,90.0948 1077.7132,89.9328 C1077.2232,89.8818 1076.6772,90.2888 1076.4062,90.3908 C1075.2152,89.9398 1074.1822,89.4258 1073.0822,89.1618 C1071.4582,88.7728 1070.8562,89.2418 1070.3032,90.8468 C1070.1822,91.2018 1069.7332,91.4568 1069.3882,91.8038 C1069.3952,91.8228 1069.4052,91.8538 1069.4122,91.8738 C1067.3042,91.5588 1065.2122,91.0428 1063.0922,90.7888 C1059.7862,90.3918 1056.4482,90.2318 1053.1322,89.9028 C1050.8712,89.6778 1048.6312,89.2518 1046.3672,89.0768 C1044.0222,88.8968 1041.6592,88.9318 1039.3062,88.8288 C1038.6342,88.7998 1037.9732,88.5888 1037.3002,88.5118 C1034.0932,88.1448 1030.8852,87.7888 1027.6752,87.4448 C1027.2852,87.4038 1026.7932,87.3288 1026.5022,87.5018 C1024.5942,88.6318 1022.8582,87.8948 1021.2062,87.0428 C1018.5102,85.6548 1015.7752,86.3908 1013.0352,86.7148 C1012.9332,86.7268 1012.7912,86.8958 1012.7532,86.8718 C1010.9742,85.7488 1008.8492,87.5188 1006.9272,86.0158 C1004.9852,84.4988 1002.3482,84.6328 999.8822,84.7028 C999.0902,84.7258 998.2942,84.6898 997.5052,84.6258 C996.0032,84.5038 994.4952,84.1618 993.0092,84.2438 C991.4452,84.3308 989.9842,84.5068 988.6902,83.4188 C988.4302,83.2008 987.9462,83.1848 987.5592,83.1478 C985.4932,82.9558 983.4272,82.7248 981.3562,82.6358 C980.3912,82.5948 979.3492,82.6868 978.4542,83.0028 C977.2522,83.4258 976.2192,83.8178 975.2652,82.6158 C975.0562,82.3518 974.6102,82.1808 974.2442,82.1188 C971.9332,81.7298 969.6312,81.4278 967.2862,81.7418 C966.9142,81.6058 966.5442,81.4668 966.1642,81.3528 C965.0762,81.0278 963.8362,80.9138 962.7032,81.0458 C962.1202,81.1138 961.5562,81.3998 960.9562,81.7158 C960.1182,81.5368 959.2832,81.3318 958.4452,81.1568 C958.0872,81.0818 957.7222,81.0348 957.3622,80.9698 C956.8182,80.7408 956.2612,80.5538 955.6932,80.5408 C953.6702,80.4938 952.1362,79.1158 950.3402,79.1528 C947.9522,79.2018 945.5932,78.0528 943.4502,78.5038 C940.5802,79.1078 938.6832,77.6038 936.3652,76.9348 C935.2452,76.6118 933.9132,76.6078 932.7522,76.8358 C931.1862,77.1438 929.8552,77.3148 928.2872,76.5588 C926.6342,75.7628 924.9192,74.7018 922.6842,75.8758 C921.7812,76.3498 920.1742,75.5548 918.5832,75.2858 C918.8452,75.7388 919.0822,76.0258 919.1852,76.3528 C919.2972,76.7068 919.4742,77.1018 919.5902,77.4748 C918.3612,77.2818 917.1332,77.0728 915.8992,77.0358 C913.9082,76.9758 911.9072,77.3248 909.9072,77.3918 C908.6312,77.4348 907.3322,77.3928 906.0722,77.2118 C902.4572,76.6908 898.8732,75.9648 895.2482,75.5448 C892.8372,75.2648 890.3052,74.9988 887.9552,75.3998 C884.9202,75.9168 882.2772,74.7018 879.4402,74.4898 C878.2822,74.4038 877.0982,74.6988 875.9242,74.7368 C874.6032,74.7798 873.2792,74.7118 871.9572,74.7208 C870.7052,74.7288 869.4542,74.7818 868.2012,74.7968 C867.8352,74.8018 867.4142,74.8468 867.1102,74.7018 C864.2342,73.3218 861.2222,73.9868 858.2392,74.0928 C857.1122,74.1328 855.9792,73.9608 854.8482,73.9108 C853.8842,73.8688 852.9192,73.8428 851.9542,73.8338 C850.5942,73.6048 849.1342,73.6638 847.7262,73.7118 C846.9352,73.7388 846.1382,73.7088 845.3482,73.6488 C843.8462,73.5348 842.3362,73.2018 840.8512,73.2928 C839.2882,73.3888 837.8272,73.5728 836.5272,72.4938 C836.2652,72.2768 835.7812,72.2628 835.3932,72.2288 C833.3262,72.0488 831.2592,71.8298 829.1882,71.7528 C828.2222,71.7178 827.1812,71.8158 826.2882,72.1368 C825.0892,72.5678 824.0582,72.9648 823.0962,71.7688 C822.8862,71.5058 822.4392,71.3368 822.0732,71.2778 C819.3742,70.8398 816.6922,70.4638 813.9422,71.1198 C811.3282,71.7448 808.8082,70.9218 806.2672,70.4078 C804.2732,70.0038 802.2362,69.7588 800.2072,69.5468 C796.6872,69.1808 793.1612,68.8488 789.6312,68.5938 C787.9452,68.4718 786.2232,68.4098 784.5552,68.6088 C783.5522,68.7278 782.6232,69.4028 781.5652,69.8698 C781.0242,66.0998 777.5342,68.0408 775.2962,67.4988 C773.4752,67.0578 771.4632,67.3768 769.5472,67.2218 C767.5892,67.0648 765.6512,66.5828 763.6952,66.5348 C761.7042,66.4858 759.7052,66.8468 757.7062,66.9258 C756.4302,66.9768 755.1312,66.9418 753.8692,66.7678 C750.2522,66.2678 746.6632,65.5628 743.0342,65.1638 C742.2752,65.0798 741.5022,65.0068 740.7282,64.9458 C740.1422,64.8158 739.5752,64.7498 739.0472,64.8588 C737.9262,64.8318 736.8142,64.8718 735.7412,65.0608 C735.1952,65.1568 734.6662,65.1838 734.1412,65.1838 C734.1172,65.1768 734.0952,65.1648 734.0702,65.1578 C731.8402,64.5998 729.6002,64.0748 727.3492,63.5978 C726.8172,63.4848 726.2242,63.6528 725.6642,63.6198 C724.2712,63.5398 722.8442,63.5728 721.4992,63.2808 C718.9972,62.7378 716.5442,62.0098 713.9242,62.4328 C713.6652,62.4758 713.3462,62.3868 713.0992,62.2728 C709.5922,60.6548 705.8382,61.3978 702.1782,61.1528 C699.4332,60.9678 696.7372,60.2078 693.9952,59.8948 C690.6862,59.5178 687.3482,59.3768 684.0292,59.0668 C681.7672,58.8558 679.5242,58.4428 677.2592,58.2818 C674.9132,58.1148 672.5502,58.1638 670.1972,58.0748 C669.5252,58.0498 668.8622,57.8428 668.1892,57.7688 C664.9802,57.4198 661.7692,57.0828 658.5572,56.7578 C658.1672,56.7188 657.6742,56.6478 657.3842,56.8218 C655.4842,57.9628 653.7422,57.2358 652.0852,56.3948 C649.3802,55.0208 646.6512,55.7728 643.9132,56.1128 C643.8102,56.1258 643.6702,56.2958 643.6312,56.2718 C641.8452,55.1598 639.7322,56.9418 637.7992,55.4508 C635.8482,53.9448 633.2132,54.0928 630.7462,54.1778 C629.9552,54.2058 629.1582,54.1748 628.3682,54.1148 C626.8662,54.0018 625.3562,53.6688 623.8712,53.7588 C622.3082,53.8548 620.8472,54.0398 619.5472,52.9598 C619.2852,52.7428 618.8012,52.7298 618.4132,52.6958 C616.3462,52.5148 614.2792,52.2958 612.2082,52.2198 C611.2422,52.1838 610.2012,52.2818 609.3082,52.6028 C608.1092,53.0338 607.0782,53.4308 606.1162,52.2348 C605.9062,51.9728 605.4592,51.8028 605.0932,51.7438 C602.3942,51.3058 599.7122,50.9298 596.9622,51.5868 C594.3482,52.2108 591.8282,51.3878 589.2872,50.8738 C587.2932,50.4698 585.2572,50.2248 583.2272,50.0128 C579.7072,49.6468 576.1812,49.3148 572.6512,49.0598 C570.9652,48.9378 569.2432,48.8758 567.5752,49.0748 C566.5722,49.1948 565.6432,49.8688 564.5852,50.3368 C564.0442,46.5658 560.5542,48.5078 558.3162,47.9648 C556.4952,47.5238 554.4832,47.8428 552.5672,47.6888 C550.6092,47.5308 548.6712,47.0488 546.7152,47.0008 C544.7242,46.9518 542.7252,47.3128 540.7262,47.3918 C539.4502,47.4428 538.1512,47.4078 536.8892,47.2338 C533.2722,46.7338 529.6832,46.0288 526.0542,45.6298 C524.3622,45.4438 522.6122,45.2768 520.9062,45.3298 C520.7552,45.2698 520.5902,45.2298 520.4512,45.1478 C518.2182,43.8368 516.2222,43.9368 514.0442,45.1248 C513.9312,45.1858 513.7682,45.1908 513.6182,45.2128 C513.0252,45.0928 512.4332,44.9758 511.8392,44.8738 C509.3202,44.1778 506.6102,44.8348 504.1512,44.0988 C502.4762,43.5988 501.0882,43.7918 499.5512,44.3758 C499.0742,44.5578 498.3862,44.3008 497.8212,44.1548 C495.7222,43.6138 493.7022,43.5998 491.5042,44.0808 C490.0552,44.3988 488.2842,43.8848 486.8142,43.3528 C484.5252,42.5238 482.6862,43.7958 480.6762,44.2518 C480.3852,44.2768 480.0932,44.3048 479.8052,44.3258 C478.9642,44.2918 478.1382,44.2598 477.3102,44.2278 C476.7242,43.8098 475.9042,44.0488 475.1242,44.0728 C474.3582,44.0958 473.5872,43.8178 472.8182,43.6748 C472.4722,43.6098 472.1232,43.4728 471.7822,43.4938 C469.9892,43.5988 468.2002,43.7688 466.4072,43.8508 C466.1242,43.8628 465.6962,43.6118 465.5622,43.3658 C464.7462,41.8728 463.3482,41.5978 461.7862,41.6038 C461.4902,41.6058 461.1942,41.5798 460.8972,41.5788 C459.6782,41.5748 458.3582,40.8388 457.3452,42.2928 C457.1502,42.5728 456.1282,42.4288 455.5302,42.3038 C455.1682,42.2278 454.7102,41.5228 454.5952,41.5898 C452.3992,42.8558 450.7962,40.5818 448.7412,40.7968 C447.4032,40.9368 445.8782,40.9478 444.9022,39.6328 C444.7762,39.4638 444.4122,39.3878 444.1592,39.3908 C441.2772,39.4198 438.3882,38.1268 435.4972,39.5818 C435.0332,39.8158 434.3332,39.7588 433.7842,39.6508 C432.1402,39.3258 430.5172,38.9098 428.7922,38.5088 C428.7222,38.7188 428.5762,38.9908 428.5472,39.2738 C428.4142,40.5428 427.7672,40.5198 426.7562,40.0988 C425.6382,39.6338 424.4482,39.3238 423.2882,38.9508 C423.1362,38.9018 422.9432,38.7988 422.8242,38.8478 C420.4792,39.8348 418.8092,38.6668 416.9352,37.5258 C416.0082,36.9608 414.4822,37.2928 413.2262,37.2338 C412.5522,37.2008 411.8682,37.2518 411.2032,37.1698 C410.2752,37.0538 409.3682,36.7948 408.4392,36.6958 C407.0772,36.5508 405.7062,36.4398 404.3362,36.4118 C401.3342,36.3508 398.3492,35.8708 395.3192,36.5768 C394.8982,36.6748 394.4762,36.7758 394.0532,36.8688 C393.3082,36.6858 392.4902,36.5778 391.8822,36.1848 C389.9102,34.9138 387.7372,35.0818 385.5702,35.3018 C385.3592,35.3228 385.1562,35.4558 384.9492,35.6208 C384.9022,35.5878 384.8512,35.5658 384.8052,35.5278 C384.7102,35.4508 384.4532,35.4538 384.3342,35.5218 C384.0642,35.6778 383.7902,35.7978 383.5162,35.8958 C382.8382,34.7258 381.9882,35.0188 381.0862,35.7098 C380.8252,35.9088 380.6042,36.0238 380.3742,36.1598 C379.3642,36.0628 378.3562,35.8798 377.3742,35.8378 C377.2742,35.8338 377.1782,35.8338 377.0792,35.8298 C377.0222,35.7888 376.9782,35.7748 376.9192,35.7318 C376.1252,35.1388 375.3122,34.5698 374.5192,33.9748 C372.9112,32.7678 371.1572,32.4148 369.1272,32.9088 C368.2172,33.1298 367.2122,32.9788 366.2492,32.9768 C362.3822,32.9658 358.5112,32.9988 354.6472,32.8928 C353.6802,32.8658 352.7472,32.3148 351.7732,32.1188 C350.9652,31.9578 350.0182,31.6998 349.3112,31.9558 C348.1042,32.3948 347.2592,32.0038 346.2832,31.5058 C345.6142,31.1638 344.8272,31.0088 344.0732,30.8518 C342.6912,30.5668 341.0772,30.6818 339.9502,30.0198 C337.7172,28.7088 335.7212,28.8088 333.5442,29.9968 C333.1812,30.1948 332.5432,30.1718 332.1442,30.0068 C329.4062,28.8748 326.3732,29.7848 323.6512,28.9708 C321.9752,28.4698 320.5872,28.6638 319.0502,29.2478 C318.5732,29.4288 317.8852,29.1728 317.3202,29.0268 C315.2222,28.4858 313.2012,28.4718 311.0042,28.9528 C309.5552,29.2698 307.7842,28.7568 306.3142,28.2238 C303.9842,27.3808 302.1212,28.7168 300.0702,29.1508 C299.1702,29.3408 298.3102,29.7238 297.4022,30.0288 C296.9272,28.4138 295.7312,28.9108 294.6232,28.9448 C293.8572,28.9678 293.0862,28.6888 292.3172,28.5458 C291.9712,28.4818 291.6232,28.3448 291.2812,28.3648 C289.4882,28.4708 287.6992,28.6408 285.9062,28.7228 C285.6232,28.7348 285.1962,28.4838 285.0612,28.2378 C284.2452,26.7438 282.8472,26.4698 281.2862,26.4758 C280.9892,26.4768 280.6932,26.4518 280.3962,26.4508 C279.1772,26.4458 277.8582,25.7108 276.8442,27.1648 C276.6492,27.4448 275.6272,27.3008 275.0292,27.1748 C274.6672,27.0988 274.2102,26.3948 274.0942,26.4618 C271.8992,27.7278 270.2952,25.4538 268.2412,25.6688 C266.9022,25.8088 265.3772,25.8198 264.4012,24.5038 C264.2752,24.3348 263.9122,24.2598 263.6582,24.2618 C260.7762,24.2918 257.8872,22.9988 254.9962,24.4538 C254.5322,24.6868 253.8322,24.6298 253.2832,24.5218 C251.6392,24.1978 250.0162,23.7818 248.2912,23.3798 C248.2212,23.5908 248.0752,23.8628 248.0462,24.1458 C247.9142,25.4148 247.2662,25.3908 246.2562,24.9708 C245.1372,24.5048 243.9472,24.1958 242.7872,23.8228 C242.6352,23.7738 242.4422,23.6698 242.3232,23.7188 C239.9792,24.7068 238.3082,23.5388 236.4342,22.3978 C235.5072,21.8328 233.9822,22.1648 232.7262,22.1058 C232.0512,22.0728 231.3672,22.1238 230.7022,22.0408 C229.7752,21.9258 228.8672,21.6658 227.9382,21.5678 C227.2552,21.4948 226.5672,21.4748 225.8812,21.4258 C225.8072,21.3178 225.3722,21.2248 225.1082,21.2038 C222.2432,20.9688 219.3802,20.6958 216.5062,20.5828 C216.0572,20.5658 215.3832,20.9888 215.0802,21.4108 C214.9922,21.4288 214.9062,21.4288 214.8192,21.4488 C212.6312,21.9578 210.4272,22.6028 208.1222,21.3888 C207.0432,20.8208 205.4312,21.3248 204.3042,20.3998 C204.2102,20.3218 203.9532,20.3258 203.8332,20.3938 C201.5692,21.6948 199.1532,20.8058 196.8732,20.7098 C195.4482,20.6498 194.1122,20.6198 192.8052,20.9498 C192.5302,20.8948 192.2532,20.8568 191.9672,20.8628 C189.5792,20.9118 187.2212,19.7618 185.0782,20.2138 C182.2082,20.8178 180.3112,19.3138 177.9932,18.6448 C176.8732,18.3218 175.5412,18.3178 174.3802,18.5458 C172.8142,18.8538 171.4832,19.0248 169.9152,18.2688 C168.3592,17.5188 166.7412,16.5598 164.6932,17.4268 C164.5942,17.4078 164.4992,17.3748 164.4012,17.3598 C163.7242,17.2548 162.9972,17.3398 162.2682,17.5018 C161.6182,17.3318 160.9182,17.1148 160.2112,16.9958 C160.4362,17.3858 160.6262,17.6518 160.7452,17.9268 C160.5852,17.9778 160.4212,18.0278 160.2642,18.0778 C159.2642,18.3968 158.5092,18.9008 157.2772,18.5068 C156.0332,18.1088 154.5512,18.3788 152.8582,18.3508 C153.3872,19.2278 153.7842,19.8848 154.1362,20.4668 C153.8762,20.6288 153.5912,20.8068 153.3142,20.9798 C152.8622,20.8818 152.4222,20.7338 151.9742,20.6178 C152.0032,19.8978 151.5622,19.5988 150.7912,19.8458 C150.4852,19.9428 150.1862,19.9898 149.8862,20.0468 C149.0202,19.7518 148.0682,19.1708 147.6212,18.4548 C147.4852,18.2358 147.3662,18.0618 147.2432,17.8758 C147.2982,17.6628 147.3522,17.4488 147.4112,17.2138 C147.2302,17.2288 147.0072,17.2458 146.8072,17.2618 C145.7582,15.8828 145.1082,16.0168 143.7212,17.5228 C143.6482,17.4398 143.5652,17.3458 143.4972,17.2698 C141.9682,17.0088 140.4142,16.6768 138.8402,16.5138 C138.3502,16.4628 137.8042,16.8698 137.5332,16.9728 C136.3422,16.5218 135.3092,16.0078 134.2092,15.7438 C132.9602,15.4448 132.3192,15.6668 131.8362,16.5088 C131.4062,16.2928 130.9902,16.0288 130.5982,15.9538 C129.1852,15.9948 127.7712,16.0098 126.3612,16.0888 C125.3992,16.1428 124.1542,15.1708 123.5442,16.8178 C123.4992,16.9378 122.3372,16.9488 121.9632,16.6778 C120.3912,15.5418 118.5622,15.6148 116.7422,15.5148 C115.8892,15.4688 115.0482,15.2908 113.9852,15.1418 C113.6742,15.3378 113.1342,15.6788 112.6162,16.0058 C110.8342,14.5368 108.7582,14.0508 107.0362,15.4138 C106.5102,15.3218 106.2242,12.7298 105.3562,15.2688 C105.2862,15.4738 104.6252,15.6728 104.3012,15.6088 C103.0492,15.3648 101.7342,15.1818 100.6012,14.6678 C97.4092,13.2208 97.4412,13.1608 94.0082,13.0778 C94.0542,14.3188 93.3442,14.4538 92.1072,14.6958 C89.2502,15.2558 86.8742,13.5778 84.1632,13.7498 C83.2582,13.8078 82.3452,13.7598 81.4382,13.7268 C78.8952,13.6338 76.3392,13.6328 73.8152,13.3848 C71.9372,13.2008 69.9922,12.1138 68.2712,12.4448 C66.8142,12.7248 65.4102,12.7418 64.0302,12.6318 C63.8062,12.4408 63.4672,12.4188 63.0072,12.5308 C61.5012,12.3438 60.0182,12.0358 58.5282,11.7588 C56.9932,11.4728 55.6132,10.5048 54.1672,9.8388 C53.7452,9.6448 53.3352,9.4268 52.9202,9.2198 L52.6882,10.7108 C52.6632,10.8738 52.6382,11.0358 52.5762,11.4328 C48.7242,10.6568 44.9122,9.8888 40.9242,9.0858 C40.8002,9.9038 40.7212,10.4218 40.5902,11.2828 C38.8302,11.0638 37.1082,10.8158 35.3872,10.6228 C34.8362,10.2388 34.3152,9.6458 33.7852,9.6588 C31.3952,9.7178 29.4342,8.5758 27.2912,7.9348 C26.2032,7.6098 24.9632,7.4958 23.8302,7.6278 C22.9242,7.7328 22.0752,8.3548 21.0412,8.8188 C19.8562,8.3078 18.3592,7.1578 16.8202,7.1218 C16.7482,7.1208 16.6812,7.1058 16.6112,7.1008 C16.4552,6.6068 16.3272,6.0998 16.2102,5.5988 C16.1062,5.1568 16.3132,4.6448 16.3662,4.1638 C16.5052,2.8998 15.5762,1.9158 14.2212,1.9698 C13.0512,2.0168 11.8842,2.1538 10.3842,2.2788 C9.6562,0.9738 7.8882,0.8828 6.0442,0.8838 C5.2322,0.8838 4.4232,0.7258 3.6152,0.6188 C2.6382,0.4908 1.6642,0.3398 0.6882,0.1968 L0.0002,0.1968 L0.0002,120.1968 Z" id="Fill-61" ></path>
    </g>
</svg>