<?xml version="1.0" encoding="UTF-8"?>
<svg width="249px" height="117px" viewBox="0 0 249 117" version="1.1" xmlns="http://www.w3.org/2000/svg" xmlns:xlink="http://www.w3.org/1999/xlink">
    <!-- Generator: Sketch 54.1 (76490) - https://sketchapp.com -->
    <title>export/hook</title>
    <desc>Created with Sketch.</desc>
    <defs>
        <linearGradient x1="-2.66980795%" y1="34.5800082%" x2="94.4570268%" y2="60.6844073%" id="linearGradient-1">
            <stop stop-color="#3592FB" offset="0%"></stop>
            <stop stop-color="#297AFE" offset="100%"></stop>
        </linearGradient>
    </defs>
    <g id="fightback" stroke="none" stroke-width="1" fill="none" fill-rule="evenodd">
        <g id="hook-small" transform="translate(-8.000000, -16.000000)">
            <g id="hook">
                <g id="cricle-stroke" transform="translate(132.421291, 74.916683) rotate(3.000000) translate(-132.421291, -74.916683) translate(3.515041, 6.752621)" fill="url(#linearGradient-1)" fill-rule="nonzero">
                    <path d="M184.730731,13.6800733 C184.790416,13.5779293 184.49199,13.4808087 184.030786,13.3870372 C183.702517,13.4824832 181.825145,13.1258164 182.017766,13.3870372 C182.755692,13.4489934 183.208758,13.5042516 183.588573,13.5544864 C183.965284,13.6092099 184.346577,13.6511352 184.730731,13.6800733 Z M248.733227,44.9626443 C248.69518,44.7497508 248.643894,44.5392665 248.579648,44.3323359 L248.737679,44.2742529 C249.015902,45.2853277 249.08045,44.4140824 249.360898,45.4294597 C249.18061,45.5434745 248.933548,45.0379371 248.733227,44.9626443 Z M247.423671,80.7963102 C246.907112,81.6386533 246.525187,82.2680964 246.187226,82.8179335 C246.016871,83.0919264 245.860255,83.3474062 245.684405,83.5936296 C245.508555,83.8398529 245.302481,84.0712658 245.079921,84.3119352 C245.176089,84.0805223 245.354686,83.7565442 245.571751,83.3862836 C245.788816,83.0160229 246.003133,82.6050336 246.239431,82.2255164 C246.47573,81.8459992 246.720271,81.4849951 246.93184,81.2369204 C247.14341,80.9888458 247.300026,80.8037155 247.423671,80.7963102 Z M149.782838,11.0875315 C150.366043,10.9887293 151.996857,11.0875315 151.732255,10.8324421 C152.790887,10.981894 153.866639,11.0714353 154.947983,11.1001063 C156.000992,11.1396272 157.037801,11.1360344 158.050309,11.1001063 L161.020335,11.0120825 C161.503639,10.9977113 161.978843,10.9797472 162.448647,10.9761544 C162.918452,10.9725616 163.377455,10.9761544 163.828359,10.9851365 C164.192863,11.1396272 165.718376,11.3066928 164.551966,11.4360338 C165.003899,11.4344786 165.45531,11.4567035 165.901977,11.5025008 C166.355581,11.5510037 166.801085,11.610285 167.187188,11.6569915 C167.964795,11.7504045 168.5129,11.788129 168.461599,11.5689677 C169.193306,11.6318419 168.691101,11.8078895 169.587509,11.8599852 C170.683719,11.890524 169.047504,11.6318419 170.022213,11.6246563 C170.343516,11.8042967 171.053622,11.9372305 171.507226,12.0971105 C174.123779,12.2355292 176.725159,12.4802971 179.296793,12.8300433 C180.425403,12.9719592 181.554012,13.1551924 182.836523,13.3330364 L187.240261,13.9941131 C187.577764,13.9294425 187.259162,13.8611792 186.881158,13.8018978 C186.503155,13.7426165 186.071151,13.6851316 186.168352,13.6222575 C186.270953,13.4875272 186.708357,13.5863294 187.153861,13.7426165 C187.599365,13.8989037 188.109669,14.1162685 188.374271,14.1917175 C189.546081,14.4827349 190.828592,14.2312384 191.022994,14.6515969 C192.078703,14.7863272 190.447889,14.2923161 191.533299,14.3947112 C192.264893,14.5192324 192.985933,14.6697473 193.693317,14.8456085 C194.457424,15.0090813 195.13783,15.1258476 195.397032,14.9318359 C196.220539,15.1114763 195.426732,15.239021 195.588734,15.3971046 C196.398741,15.6072838 196.868545,15.4617751 196.668743,15.6953076 C198.723461,16.1066841 201.396484,16.7623716 204.007406,17.4432087 C205.316918,17.7755434 206.604829,18.1276386 207.811739,18.4240452 C209.01865,18.7204519 210.131059,18.9899125 211.081467,19.1821277 C211.940075,19.6563783 210.517162,19.0761398 210.23636,19.1426068 C211.146268,19.4408098 211.769973,19.6581747 212.396379,19.8450007 C213.105414,20.0675124 213.839321,20.2530986 214.591498,20.4000896 C214.656298,20.57973 215.263803,20.7809272 215.941509,20.9875137 C216.276312,21.0917051 216.630015,21.1976929 216.935118,21.3072736 C217.196827,21.3974042 217.435556,21.5144076 217.642524,21.6539795 C218.598332,21.9162545 218.830534,21.944997 218.584832,21.6216442 C219.394839,21.9360149 219.621641,22.1120625 219.664841,22.225236 C219.708042,22.3384094 219.586541,22.4048764 219.635141,22.5126606 C220.215646,22.7390075 220.728651,22.9114623 221.255155,23.1126595 C221.78166,23.3138568 222.348665,23.5509821 223.042571,23.8761312 C223.388174,23.7719398 222.640267,23.4144554 223.104671,23.33721 C223.671676,23.6318203 223.839077,23.7827182 223.817477,23.8653528 C223.795877,23.9479874 223.585275,23.9677478 223.374673,24.0252327 L225.33489,24.9413987 C225.604893,24.8210397 224.778686,24.4276272 225.037888,24.3054717 C225.184434,24.4644756 225.3761,24.6029793 225.602193,24.7132554 C225.817435,24.8254752 226.044857,24.9269494 226.282599,25.0168477 C226.736202,25.1964881 227.133106,25.338404 227.181706,25.5306192 C227.60021,25.7192417 227.62991,25.5863078 227.308607,25.422835 C227.700111,25.4372062 228.499318,26.2096599 229.074423,26.5366055 C228.501058,26.3218321 227.958748,26.0722686 227.454409,25.7910978 C227.023461,25.561208 226.572688,25.3482705 226.104397,25.1533744 C226.552601,25.4300206 226.946804,25.6635531 227.316707,25.871936 C227.686611,26.0803189 228.021414,26.2833125 228.367017,26.4701385 C228.71262,26.6569645 229.071723,26.8419941 229.447026,27.0449878 L230.710637,27.7383997 C230.999539,27.6898968 230.302933,27.3036699 230.745737,27.3072627 C230.991135,27.4880952 231.250698,27.6601902 231.523344,27.8228307 C231.760946,27.966543 231.987748,28.1012733 232.25505,28.2521712 C233.081649,28.7064864 233.855181,29.2019229 234.56897,29.7342045 C234.56897,30.0036651 233.858864,29.4449835 233.710363,29.5366001 C233.613162,29.6174382 234.031665,29.958755 234.53657,30.3090538 L235.284476,30.8228253 C235.457544,30.9447292 235.644392,31.0576341 235.843381,31.1605492 C236.693888,31.7407877 235.74888,30.8713282 236.148484,30.9809088 C236.537896,31.1735346 236.83971,31.4340225 237.020591,31.7336021 C237.109692,31.8647396 237.190693,31.9976735 237.290594,32.1395894 C237.410413,32.2955426 237.543842,32.4466987 237.690197,32.5922832 C238.141101,32.7880912 238.735106,33.2048569 238.913308,32.9838992 C239.261611,33.2695275 238.994308,33.6216226 239.493813,33.7132392 C240.141818,34.3240166 239.250811,33.8497659 238.837707,33.3629405 C239.132699,33.7762328 239.47953,34.172245 239.874516,34.5467707 C240.30112,35.0228177 240.824924,35.5563497 241.391929,36.1168277 C242.110135,36.8138325 242.161436,36.1994623 242.895842,37.0797002 C242.806741,37.3437716 242.312637,36.6880842 242.139835,36.7563475 C243.717614,38.4722242 245.126386,40.2544081 246.357272,42.0916673 C246.668675,42.5419659 246.977377,42.9928632 247.28338,43.4443594 C247.562382,43.9042388 247.845885,44.3653159 248.133887,44.8275905 C248.749493,45.7455529 249.259797,46.697647 249.856502,47.6641123 C249.802502,48.4904581 250.153505,48.4814761 250.491008,50.0479404 C250.81771,49.9006352 250.113004,48.4706977 250.887911,48.8730922 C250.79881,49.1084211 250.858211,49.530576 251.006712,50.064108 C251.044512,50.1970419 251.087713,50.3371614 251.133613,50.4826701 C251.179514,50.6281788 251.233514,50.7808732 251.274014,50.9389567 C251.363115,51.2533274 251.465716,51.5874585 251.573717,51.9287753 C252.062421,53.2868567 252.435024,54.8030216 252.653726,55.787451 C252.750927,56.3658931 252.310823,55.9329597 252.183922,56.0892468 C252.210922,56.5221802 252.340524,56.5419406 252.389124,56.8832574 C252.580826,57.6682859 252.364824,56.0712828 252.759027,56.5904435 C252.853528,57.9125969 252.597026,57.508406 252.219022,57.1617 C252.41184,57.4910248 252.526609,57.8382768 252.559225,58.1910395 C252.584436,58.3731681 252.590751,58.5562363 252.578126,58.7389427 C252.578126,58.9185831 252.561925,59.0982235 252.551125,59.2778639 C252.516025,59.9784614 252.513325,60.5856459 253.012829,60.8946274 C252.975029,61.613189 252.723927,61.7928294 252.472825,61.9724698 C252.540365,62.4239435 252.645831,62.8725484 252.788727,63.3161799 C252.823828,63.4149822 252.856228,63.5101916 252.888628,63.605401 L252.972329,63.8802508 C253.029029,64.0598912 253.09113,64.2395316 253.150531,64.4065971 C252.915628,65.1790508 252.418824,64.8934226 252.340524,66.251504 C252.340524,66.727551 252.429624,66.5155754 252.526825,66.2928213 C252.624026,66.0700672 252.702327,65.8347383 252.745527,66.2784501 C252.545725,67.270065 252.475525,66.9395267 252.240623,66.7832396 C252.129922,67.9006028 252.089421,68.141321 251.719518,68.897607 C251.660118,69.2479058 251.784319,69.3305404 251.719518,69.7095816 C251.96252,69.6431147 252.067821,69.1329359 252.146122,68.5976076 C252.224423,68.0622792 252.275723,67.505394 252.556525,67.3491068 C252.602426,67.5395256 252.475525,68.0209619 252.348624,68.5491046 C252.221722,69.0772474 252.021921,69.6413183 252.048921,70.0221559 C251.811319,69.9520961 251.595317,70.1065869 251.406315,70.4856281 C251.206514,71.0425133 251.406315,71.0065853 251.562917,71.0532918 C251.446816,71.2562854 251.317215,71.4898179 251.176813,71.7431109 C251.036412,71.9964038 250.906811,72.2712536 250.76641,72.5604747 C250.496408,73.1389167 250.250705,73.7748437 249.956403,74.3892139 C249.6621,75.003584 249.440698,75.6179542 249.259797,76.1568754 C249.071582,76.5930815 248.932594,77.0380307 248.843993,77.4880107 C248.619891,77.800585 248.40659,78.1347161 248.195988,78.4832185 C247.985386,78.8317209 247.742384,79.1856124 247.523682,79.5610609 C247.075478,80.2939937 246.667775,81.0700402 246.19257,81.8011766 L245.522965,82.8897974 C245.412264,83.0694378 245.309663,83.2490782 245.196262,83.4125509 C245.082861,83.5760237 244.96406,83.7430893 244.850659,83.9029692 C244.397055,84.5388962 243.973151,85.1065599 243.584348,85.5484752 C243.508747,85.7784149 243.506047,85.8394927 243.584348,85.8125466 C243.710004,85.7279724 243.813982,85.6302711 243.892151,85.5233256 C244.162153,85.2394938 244.472656,84.8676381 244.583357,84.9844044 C243.935351,85.7173372 242.774341,86.7179342 241.832033,87.7113456 C241.361576,88.1640351 240.928918,88.6336064 240.536022,89.1179299 C240.228252,89.4783365 240.027506,89.8747531 239.944717,90.2855925 C239.385812,90.8855914 239.674714,89.8742159 238.940308,90.8029568 C238.376003,91.5484644 239.958217,90.3107421 239.450612,91.0257109 C238.583905,92.004751 238.300402,91.8825956 238.0574,91.6849911 C237.144792,92.631696 238.554205,91.7029552 238.0331,92.3191217 C237.576796,92.800558 237.468795,92.6784025 237.317594,92.6352888 C237.047591,92.893971 237.271693,92.8885818 237.317594,92.9676236 C236.704689,93.4113353 236.172784,93.7903766 235.73808,94.165825 C235.303478,94.5116278 234.946929,94.8977191 234.679671,95.3119307 C233.869664,96.1113305 234.112666,95.2993559 233.37286,95.9766002 C233.137621,96.1466915 232.941953,96.3392416 232.792355,96.5478566 C232.730254,96.6700121 232.792355,96.727497 232.930056,96.7634251 C232.433354,97.0967864 231.973173,97.4533865 231.553044,97.830489 C231.369442,97.9921654 231.169641,98.1646202 230.896938,98.3801887 C230.624236,98.5957571 230.257033,98.8400681 229.768329,99.1634208 C229.498326,99.1490495 229.768329,98.9083314 229.738628,98.7843795 C229.468626,99.1436603 229.028522,99.4131209 228.515518,99.7256952 C227.882165,100.09267 227.304306,100.499999 226.790203,100.941861 C227.295107,100.927489 228.283316,100.223299 227.505709,101.038867 C226.909702,101.283872 226.371892,101.586596 225.909995,101.937068 C225.669693,102.116709 225.421291,102.296349 225.159389,102.486768 C224.897487,102.677187 224.619384,102.874791 224.349382,103.077785 C223.382774,103.41012 223.425974,103.332874 222.99937,103.268204 C222.259564,103.713712 222.175863,103.900538 222.013862,104.126885 C222.240664,104.126885 222.383765,103.893352 222.910269,103.600539 C223.074971,103.780179 221.78166,104.421495 220.936552,104.919099 L220.66655,104.712513 C220.261547,104.904728 219.840343,105.120296 219.375939,105.361014 C218.911535,105.601733 218.39583,105.860415 217.842326,106.169396 C217.14302,106.593348 218.279729,106.471192 217.661424,106.87179 C217.407349,106.946024 217.162659,107.033732 216.929718,107.134065 L216.07921,107.469993 C215.512206,107.689154 214.999201,107.872387 214.753499,107.829273 C213.70859,108.497536 215.485205,107.701729 215.377204,107.944243 C214.8372,108.177776 214.253995,108.461608 213.67889,108.745439 C213.103785,109.029271 212.51518,109.305917 211.961675,109.561007 C211.473981,109.795796 210.959404,110.004818 210.422662,110.186155 C210.053244,110.320557 209.636598,110.386913 209.215751,110.378371 C208.665279,110.64282 208.176679,110.960031 207.765839,111.319686 C207.063833,111.598129 207.250134,111.237052 206.540028,111.499327 C205.767821,111.833458 205.130616,112.140643 204.995615,112.349026 C204.65593,112.383311 204.324553,112.447339 204.010106,112.539445 C203.61319,112.645834 203.224772,112.765753 202.846396,112.898725 C202.036389,113.180761 201.172382,113.543634 200.367775,113.847227 C200.94288,113.847227 201.150782,113.929861 202.244291,113.39094 C201.865169,113.616147 201.464745,113.824958 201.045481,114.016089 C200.625902,114.198918 200.190438,114.365076 199.741369,114.513693 C199.290466,114.666387 198.828762,114.806506 198.353557,114.941237 C197.878353,115.075967 197.389649,115.208901 196.876645,115.327464 C195.858736,115.568182 194.792227,115.817882 193.660917,116.105306 C192.431393,116.400644 191.22717,116.740677 190.053686,117.123867 C190.323688,117.123867 190.925793,116.944227 190.896093,117.104107 C190.55319,117.416681 188.104269,117.391532 188.387771,117.874764 C187.953068,117.982549 188.009768,117.844225 187.907167,117.786741 C186.827158,118.047219 187.326662,118.505302 186.227753,118.523266 C184.73194,118.923864 185.95775,118.442428 185.709348,118.363386 C185.247644,118.49632 184.513238,118.674164 183.665431,118.875361 L180.930307,119.489731 C180.471303,119.593923 180.028499,119.7053 179.612696,119.804102 C179.196892,119.902904 178.802689,119.99991 178.481386,120.09512 C177.81988,120.285538 177.371676,120.4544 177.298776,120.61428 C176.426668,120.806496 175.543761,120.973561 174.663553,121.153202 C174.393551,121.04901 175.341259,120.919669 175.330459,120.810088 C171.923029,121.417273 168.016096,122.0532 165.534774,122.75739 C165.761576,122.649606 166.387981,122.549007 166.22868,122.43763 C165.749415,122.465529 165.27441,122.519603 164.808468,122.599307 C164.333758,122.674301 163.865139,122.765438 163.404456,122.87236 C162.467548,123.078947 161.53064,123.343018 160.561331,123.542419 C159.481322,123.499305 161.276837,123.362778 161.249837,123.17236 C160.615332,123.240623 159.816125,123.310683 158.968317,123.407688 C158.12051,123.504694 157.218702,123.612479 156.368195,123.709484 C154.66718,123.889125 153.184867,124.102897 152.774464,124.248406 C147.269116,124.51607 141.361465,125.123254 136.795726,125.40529 C136.487923,125.356787 136.363722,125.270559 136.382622,125.1502 C133.682599,125.099901 133.7339,125.443014 132.097685,125.54002 C132.127386,125.313673 130.601873,125.254392 129.19786,125.288523 C127.793848,125.322655 126.497837,125.42505 127.008141,125.588523 C126.193492,125.379049 125.320034,125.290162 124.448519,125.328044 C123.490011,125.344212 122.404602,125.407086 121.138291,125.464571 C121.446093,125.408882 121.564895,125.319062 121.540594,125.2005 C119.83418,125.250799 119.90438,125.22026 119.183474,125.419661 C118.467968,125.1502 118.73257,125.263374 117.236757,125.29032 C117.277257,125.19511 117.315058,125.099901 116.861454,125.074751 C114.944437,125.270559 115.800345,124.895111 114.901237,125.134033 C112.311915,124.632836 107.243971,124.613076 104.80585,124.460381 C104.290145,124.377747 104.109244,124.262777 104.079544,124.133436 C102.429829,124.313076 100.969117,123.860382 99.7892065,123.964574 C98.4838665,123.677281 97.1430943,123.466891 95.7823719,123.335832 C95.0263654,123.256791 94.2271585,123.156192 93.3685511,123.084336 C92.5099437,123.01248 91.5865357,122.924456 90.6037272,122.811282 C89.5453181,122.685534 89.3239162,122.538229 89.8990211,122.513079 C88.4545087,122.390924 87.685002,122.153799 87.568901,122.346014 C86.2641462,122.012577 84.9328258,121.727117 83.5809666,121.490925 C82.3308558,121.260986 81.1509456,121.07416 80.0034357,120.903501 C78.8559258,120.732843 77.7543163,120.544221 76.6608068,120.348413 C75.5519335,120.14655 74.4685948,119.887071 73.4207789,119.572366 C71.933066,119.319073 73.7447817,119.877755 72.2192685,119.559791 L72.3029692,119.36578 C71.2229599,119.265181 69.7703473,118.850212 68.344735,118.483745 C66.9191227,118.117279 65.5394108,117.738238 64.5647024,117.720274 C63.2335909,117.098718 58.3546488,116.270576 58.1845473,115.830457 C61.9132795,116.863389 66.9137227,117.849615 72.8780742,118.977756 C71.9168659,118.350811 67.2755258,117.47237 63.8788965,116.642431 C61.97268,116.164588 59.9773628,115.485547 58.9270537,115.205308 C57.7660437,114.914291 56.645534,114.756207 54.9310192,114.292735 C54.3910146,113.955011 53.3434055,113.597527 52.2039957,113.202318 C51.0645859,112.807109 49.811775,112.415493 48.8586668,112.029266 C49.3635712,111.849625 50.0871774,111.774177 51.2211872,111.90711 C51.9132042,111.99027 52.5940162,112.11042 53.2570048,112.266391 C54.0670118,112.446032 54.9931198,112.674175 56.0812292,112.984953 C53.9212105,112.049026 48.7479659,110.804118 45.4242372,109.640049 C46.2128014,109.780459 46.9733052,109.983094 47.6895567,110.24364 C48.5331661,110.544738 49.4063579,110.807611 50.3031793,111.030465 C49.9818765,110.671184 49.1799696,110.265197 48.1431606,109.839449 C47.6220561,109.623881 47.0361511,109.410109 46.4286458,109.180169 C45.8211406,108.95023 45.1839351,108.718493 44.5386295,108.484961 C44.7195311,108.386159 46.0722428,108.92508 46.0398425,108.709511 C45.1650349,108.308913 43.8096232,107.858016 43.5450209,107.522088 C43.8150233,107.387358 44.473829,107.48616 45.3351364,107.710711 C46.1964438,107.935261 47.2656531,108.287356 48.3888628,108.628673 C49.5120725,108.96999 50.6622824,109.347235 51.6990913,109.591546 C52.7359003,109.835857 53.626908,110.002922 54.204713,109.959809 C69.7532449,114.385636 86.0885477,117.470526 102.813233,119.139433 L104.376546,119.29572 L105.94796,119.428654 L107.516673,119.561588 L108.29968,119.628055 L109.088087,119.681947 L112.230914,119.902904 L115.381841,120.082545 C119.583077,120.290928 123.787014,120.4047 127.99365,120.423862 C132.200286,120.443023 136.396123,120.346017 140.581159,120.132844 L143.713186,119.963982 L146.837113,119.746617 C147.879322,119.681947 148.913431,119.575959 149.95294,119.491528 L151.508153,119.356798 L153.057966,119.196918 C154.086675,119.085541 155.123484,118.992128 156.149493,118.864583 L159.23022,118.490931 C161.271437,118.208895 163.318055,117.937638 165.340372,117.603507 C169.390407,116.963988 173.386442,116.211893 177.328476,115.347224 C181.27051,114.482555 185.123443,113.494533 188.887276,112.383157 C192.648564,111.288226 196.319498,110.06074 199.884471,108.705919 C203.424288,107.359138 206.84954,105.883238 210.144559,104.284968 C210.954566,103.878981 211.778073,103.485569 212.57458,103.068803 L214.939801,101.81132 C215.712007,101.37659 216.468014,100.932879 217.23212,100.496353 L217.804525,100.165814 L218.34453,99.822701 L219.44614,99.1382711 C222.353899,97.3042679 225.082014,95.3481669 227.61371,93.2819942 C230.103379,91.2217251 232.382802,89.052801 234.436669,86.7897904 C239.064509,81.6736319 242.471938,76.146097 244.262054,70.3778439 C246.065728,64.5603984 246.098779,58.5614474 244.359255,52.7353607 C243.480502,49.7645287 242.11889,46.8660667 240.29842,44.0910649 C238.443161,41.2671788 236.075657,38.6048959 233.248659,36.1635342 C232.886856,35.8563492 232.538553,35.5437749 232.168649,35.2401826 L231.002239,34.3617411 C230.610736,34.0707236 230.232733,33.7689278 229.825029,33.4832995 L228.577618,32.6389897 C226.855517,31.5191142 225.039068,30.4653182 223.137071,29.4827079 C219.151363,27.4698886 214.869829,25.7304976 210.357861,24.2911005 C202.425193,21.7114644 192.640308,19.5162588 183.111926,18.0791357 C178.343685,17.3605741 173.629444,16.8216529 169.228406,16.4372224 C164.827368,16.052792 160.734133,15.8336307 157.202502,15.706086 C152.32086,15.5324337 147.252916,15.5048888 141.998671,15.6234515 C140.68646,15.6432119 139.360748,15.7024932 138.024237,15.7420141 C136.687725,15.781535 135.340413,15.8551876 133.974202,15.9126725 C132.60799,15.9701574 131.244478,16.0563848 129.862066,16.1444086 C128.479654,16.2324324 127.086442,16.324049 125.68243,16.4318332 C120.064582,16.8497966 114.262231,17.412071 108.27538,18.1186565 C105.281054,18.4653625 102.243528,18.8695534 99.152001,19.2845227 C96.0604743,19.699492 92.9419474,20.1701499 89.7451198,20.6695502 C82.5711579,21.785117 75.4673965,23.0803243 68.5175365,24.6593633 C65.0453066,25.4509787 61.618077,26.3204382 58.2358478,27.2677419 C54.8536186,28.2150455 51.55059,29.2647443 48.3267622,30.416838 C45.1006833,31.5583955 41.9719776,32.8178019 38.9549813,34.1892863 C37.4456683,34.8701234 35.9849557,35.5922778 34.5350431,36.3305998 C33.0851306,37.0689218 31.6892186,37.8485611 30.3392069,38.6659249 C27.6128191,40.2719525 25.0737887,42.0134893 22.7440414,43.8754964 C21.5695312,44.7970516 20.503022,45.7689062 19.458113,46.7497427 C18.4564043,47.7485433 17.4735959,48.7599187 16.6257885,49.8162043 C15.7600569,50.8646345 14.9821617,51.9441262 14.2956684,53.0497314 L13.8177643,53.8832628 L13.5801622,54.3000285 L13.3749605,54.7239798 L12.9564569,55.5575113 L12.6108539,56.414396 C10.7209943,61.0126754 11.1632391,65.8972833 13.8690647,70.3113769 C15.2289928,72.557385 17.0351835,74.6720098 19.2394111,76.5987908 C21.4728756,78.5684321 24.0273722,80.3674212 26.8561769,81.9628529 C29.7126029,83.5853342 32.8060645,85.0134152 36.0902566,86.2257195 C36.9002636,86.5329046 37.7507709,86.8185328 38.5958782,87.1005682 L39.8729892,87.5065555 L41.1825005,87.8855968 L42.4947119,88.264638 C42.9294156,88.3957755 43.3857196,88.4963741 43.8285234,88.6131404 L45.178535,88.9544571 L45.8481408,89.1251155 L46.5312467,89.2778098 C50.1846728,90.1201553 53.9156956,90.8053989 57.7012431,91.3293031 C58.1845473,91.3921773 60.4012665,91.6203206 59.1673558,91.5682249 C58.2844482,91.4748119 57.4258408,91.35086 56.5753334,91.2340937 C55.7248261,91.1173275 54.8824188,91.0059504 54.0616117,90.8748129 C53.2408046,90.7436755 52.4226976,90.6161308 51.6315907,90.4742149 L49.2690704,90.0305031 C48.877567,89.9604433 48.4968637,89.8778088 48.1161604,89.7933778 L46.9767506,89.545474 L45.8535409,89.3011631 C45.4809376,89.2167321 45.1191345,89.1215227 44.7546314,89.0317025 C44.0283251,88.8520621 43.3020188,88.6724217 42.5946127,88.4927813 L40.4966946,87.8981716 C35.1753603,86.3546985 30.2323574,84.2885736 25.832868,81.7688413 C27.1180791,82.8466837 29.1295965,83.9927894 31.4408164,85.0023684 C33.7532499,85.9883769 36.1666805,86.8653731 38.6633788,87.6269146 C42.6529183,88.8573263 46.7779671,89.8830662 51.0024853,90.6951726 C55.252627,91.5062559 59.5700484,92.1522549 63.9328969,92.6298996 C72.7052727,93.614329 81.6963503,94.0544479 90.8845296,94.3760042 C87.3933995,94.5969619 82.7439594,94.250256 79.0449274,94.0778012 C79.3851304,94.2179207 80.3058383,94.2807948 81.3021469,94.3239085 C82.2069375,94.3459477 83.1087368,94.405947 84.0021702,94.5035489 C81.083445,95.1700148 76.7121073,94.2269027 72.8672741,94.5035489 C74.4197875,94.6508541 75.9426006,94.7245066 77.4168134,94.7963628 C78.8910261,94.8682189 80.3274385,94.9023506 81.7071504,94.9454643 C84.4665742,95.0370809 87.0207963,95.1520508 89.310416,95.4987567 C88.1926064,96.0376779 83.3703648,96.0933664 80.4462395,96.0376779 C80.2977382,96.1472585 80.737842,96.176001 81.2076461,96.1957615 C78.4347221,96.1957615 75.3728957,96.1957615 72.162568,96.0933664 C70.5587542,96.0610312 68.92254,95.9819894 67.2593257,95.913726 C65.5961113,95.8454627 63.9301969,95.7340856 62.2615825,95.6011517 C55.5844249,95.1322903 48.9855679,94.1478609 43.8744238,92.9909768 C42.7944145,92.8113364 42.1518089,92.8113364 41.0744996,92.6119356 C40.5479951,92.4861873 40.0322906,92.3352894 39.5165862,92.1879842 L37.9559727,91.7316976 L37.178366,91.5071471 L36.4034593,91.2646326 L35.6366527,91.0131361 L34.869846,90.7544539 C32.8149084,90.0638629 30.8175776,89.2998756 28.8865944,88.4658353 C24.9944138,86.7856942 21.3995502,84.8187685 18.1702019,82.6023728 C14.8686591,80.3415346 12.0446505,77.7924259 9.7758294,75.0251409 C7.43827509,72.1772206 5.86490434,69.0799539 5.12638926,65.8724628 C4.76472925,64.2489546 4.63994714,62.6059779 4.75378604,60.9664836 C4.75378604,60.7598971 4.78618632,60.5569035 4.81048653,60.3539098 L4.88878721,59.7413361 L4.9697879,59.1305587 L5.09938902,58.5251706 C5.19388984,58.1227761 5.26409045,57.7149924 5.38289147,57.3161907 L5.75549469,56.1233785 C6.30774526,54.5498349 7.03885488,53.0064754 7.94251357,51.5066204 C8.84815615,50.0252683 9.89892255,48.5850512 11.0880407,47.1952509 C12.273075,45.8197638 13.5757259,44.4906369 14.9895744,43.2144197 C16.3973226,41.9469952 17.9032729,40.7291822 19.5013134,39.5659233 C22.6746477,37.2627874 26.1388568,35.1448597 29.8559028,33.2353958 C32.9206961,31.561195 36.1538546,30.028286 39.5327863,28.6473801 C41.1879006,27.9593574 42.8754152,27.321634 44.5710298,26.6982818 C46.2666444,26.0749296 47.9892593,25.498284 49.7334744,24.9449916 C56.6941345,22.7138578 63.9571972,20.9030827 71.695464,19.2450018 C79.4337308,17.586921 88.033305,16.155187 96.3061764,14.9893209 C100.448012,14.407286 104.503447,13.8971073 108.31858,13.4677667 C112.133713,13.0384262 115.703144,12.695313 118.864871,12.415074 C119.359074,12.3097078 119.870191,12.2433839 120.387684,12.2174696 C121.00059,12.0378292 120.339084,12.134835 120.336384,11.948009 C121.66533,11.9775694 122.99571,11.9589791 124.321618,11.8923204 C124.993924,11.8599852 125.67163,11.8168715 126.333136,11.770165 C126.994641,11.7234585 127.664247,11.6821412 128.312253,11.6318419 C129.608264,11.5276504 130.858375,11.4360338 131.997785,11.3677705 C132.567489,11.3354352 133.112894,11.3048964 133.617799,11.2905251 C134.122703,11.2761539 134.606007,11.2743575 135.040711,11.2905251 C135.561815,11.2474114 135.345813,11.1108847 135.402514,11.0031005 C136.787626,11.0839387 136.174721,11.0533998 137.727234,10.9150767 C137.003628,11.2042977 138.674942,11.2510042 140.462358,11.1054955 C141.107663,10.8342385 140.230156,11.0048969 140.057354,10.77855 C141.580167,10.6510053 141.221064,10.9132803 141.237264,11.0893279 C142.530576,11.1468128 144.080389,11.0426214 145.605902,11.0013041 C146.370009,10.974358 147.123315,10.9545976 147.833421,10.9599868 C148.487678,10.9633041 149.140143,11.005993 149.782838,11.0875315 Z M77.6371067,119.830531 C76.3737959,119.48244 75.065038,119.22783 73.7308567,119.070595 C74.3072731,119.141373 75.0715394,119.379784 75.8023529,119.571631 C76.5331665,119.763478 77.2228075,119.910622 77.6371067,119.828668 L77.6371067,119.830531 Z M252.110311,53.2686254 C251.840914,53.8143163 251.345225,50.5303919 251.329061,51.8995087 C251.474535,52.1948467 251.983695,54.2094042 252.110311,53.2666695 L252.110311,53.2686254 Z" id="Shape" transform="translate(128.931781, 68.166648) rotate(-5.000000) translate(-128.931781, -68.166648) "></path>
                </g>
                <text font-family="RedRing-Medium, Red Ring" font-size="22.65625" font-weight="400" line-spacing="23.4375" letter-spacing="0.1953125" fill="#000000">
                    <tspan x="50.390625" y="69.5625007">100 Leaders</tspan>
                    <tspan x="50.390625" y="93.0000007">gather in Berlin</tspan>
                </text>
            </g>
        </g>
    </g>
</svg>