<?xml version="1.0" encoding="UTF-8"?>
<svg width="637px" height="298px" viewBox="0 0 637 298" version="1.1" xmlns="http://www.w3.org/2000/svg" xmlns:xlink="http://www.w3.org/1999/xlink">
    <!-- Generator: Sketch 54.1 (76490) - https://sketchapp.com -->
    <title>export/center-hook</title>
    <desc>Created with Sketch.</desc>
    <defs>
        <linearGradient x1="-2.66980795%" y1="34.5800082%" x2="94.4570268%" y2="60.6844073%" id="linearGradient-1">
            <stop stop-color="#3592FB" offset="0%"></stop>
            <stop stop-color="#297AFE" offset="100%"></stop>
        </linearGradient>
    </defs>
    <g id="fightback" stroke="none" stroke-width="1" fill="none" fill-rule="evenodd">
        <g id="center-hook" transform="translate(-31.000000, -78.000000)">
            <g>
                <g id="cricle-stroke" transform="translate(349.998504, 227.786709) rotate(3.000000) translate(-349.998504, -227.786709) translate(19.998504, 53.286709)" fill="url(#linearGradient-1)" fill-rule="nonzero">
                    <path d="M472.910672,35.0209877 C473.063466,34.759499 472.299495,34.5108704 471.118812,34.2708152 C470.278444,34.5151571 465.472372,33.60209 465.96548,34.2708152 C467.854572,34.4294231 469.014419,34.5708842 469.986746,34.6994852 C470.951128,34.8395772 471.927237,34.946906 472.910672,35.0209877 Z M636.757062,115.104369 C636.659661,114.559362 636.528369,114.020522 636.3639,113.49078 L636.768458,113.342087 C637.480709,115.930439 637.645951,113.700051 638.3639,116.299417 C637.902361,116.591295 637.269883,115.297119 636.757062,115.104369 Z M633.404597,206.838554 C632.082206,208.994952 631.10448,210.606327 630.239298,212.01391 C629.80319,212.715331 629.402253,213.36936 628.952077,213.999692 C628.501901,214.630023 627.974351,215.22244 627.404597,215.838554 C627.650787,215.246137 628.107997,214.416753 628.663683,213.468886 C629.219369,212.521019 629.76802,211.468886 630.372944,210.497322 C630.977868,209.525758 631.603894,208.601587 632.145512,207.966516 C632.687129,207.331445 633.088067,206.857512 633.404597,206.838554 Z M383.444066,28.3840806 C384.93707,28.1311469 389.111955,28.3840806 388.434573,27.7310518 C391.144671,28.1136486 393.898597,28.3428743 396.666836,28.4162721 C399.362539,28.5174456 402.01677,28.508248 404.608792,28.4162721 L412.212058,28.1909312 C413.449317,28.1541409 414.665839,28.1081529 415.868538,28.0989553 C417.071236,28.0897578 418.246286,28.0989553 419.4006,28.1219493 C420.333728,28.5174456 424.239042,28.9451335 421.253032,29.2762466 C422.409982,29.2722652 423.565594,29.329161 424.709062,29.446402 C425.870288,29.5705695 427.010778,29.7223297 427.999202,29.8418983 C429.989875,30.0810356 431.393024,30.1776103 431.261694,29.6165574 C433.134863,29.7775152 431.849219,30.228197 434.144023,30.3615621 C436.95032,30.4397416 432.761611,29.7775152 435.256865,29.75912 C436.0794,30.2189994 437.897272,30.5593102 439.058498,30.9686029 C445.756875,31.3229547 452.416406,31.9495606 458.99979,32.8449109 C461.889031,33.2082156 464.778272,33.6772926 468.0615,34.1325732 L479.335069,35.8249295 C480.199077,35.6593729 479.383454,35.4846187 478.415765,35.3328585 C477.448077,35.1810983 476.342148,35.0339369 476.590982,34.8729791 C476.85364,34.5280695 477.973394,34.7810032 479.113884,35.1810983 C480.254373,35.5811934 481.560753,36.1376475 482.238134,36.3307968 C485.237968,37.0758015 488.521197,36.4319703 489.018865,37.5080881 C491.72148,37.8529977 487.546596,36.5883293 490.325244,36.8504605 C492.198126,37.1692349 494.043989,37.5545531 495.854892,38.0047579 C497.811005,38.4232481 499.552844,38.7221698 500.216402,38.2255 C502.32458,38.6853794 500.292434,39.0118938 500.707158,39.4165877 C502.780776,39.9546466 503.983474,39.5821443 503.471982,40.1799875 C508.732059,41.2331113 515.574998,42.9116712 522.25896,44.6546142 C525.611309,45.5053911 528.908361,46.4067547 531.998052,47.1655557 C535.087743,47.9243568 537.935511,48.6141759 540.368556,49.1062469 C542.566591,50.3203285 538.923936,48.834918 538.205082,49.0050734 C540.534446,49.7684732 542.131132,50.3249273 543.734729,50.8032019 C545.549859,51.3728318 547.428662,51.8479325 549.354234,52.2242293 C549.520123,52.6841087 551.075337,53.1991736 552.810264,53.7280349 C553.667359,53.994765 554.572839,54.2660939 555.353902,54.5466203 C556.023876,54.7773548 556.635023,55.0768834 557.164861,55.4341876 C559.61173,56.1056115 560.206168,56.1791922 559.57717,55.3514093 C561.650788,56.1561982 562.231401,56.6068801 562.341994,56.8966041 C562.452587,57.1863281 562.141544,57.3564835 562.265961,57.6324111 C563.752054,58.2118592 565.065346,58.6533434 566.413197,59.1684084 C567.761049,59.6834733 569.212581,60.2905141 570.988981,61.1228959 C571.873724,60.8561658 569.959084,59.9410058 571.147958,59.7432576 C572.599491,60.4974599 573.028038,60.8837586 572.972742,61.0953031 C572.917445,61.3068476 572.378305,61.3574344 571.839164,61.5045958 L576.857319,63.8499808 C577.548525,63.5418616 575.433435,62.5347257 576.096993,62.2220077 C576.472151,62.6290575 576.962817,62.983627 577.541613,63.2659339 C578.092633,63.5532166 578.674834,63.8129906 579.283452,64.0431301 C580.444678,64.5030096 581.460751,64.8663143 581.585168,65.3583853 C582.656537,65.8412586 582.73257,65.5009479 581.910035,65.0824576 C582.912284,65.119248 584.958253,67.0967294 586.430522,67.93371 C584.962708,67.3838901 583.574394,66.7450077 582.283286,66.0252104 C581.180059,65.4366925 580.026082,64.8915726 578.827256,64.3926385 C579.974658,65.1008528 580.983819,65.698696 581.930771,66.2321561 C582.877723,66.7656163 583.734819,67.28528 584.619562,67.7635546 C585.504306,68.2418292 586.42361,68.715505 587.384386,69.2351687 L590.61923,71.0103032 C591.358821,70.8861358 589.575509,69.897395 590.709087,69.9065926 C591.337306,70.3695238 592.001787,70.810087 592.69976,71.2264465 C593.308021,71.5943501 593.888634,71.9392596 594.572928,72.3255583 C596.68902,73.4886052 598.669263,74.7569225 600.496563,76.1195635 C600.496563,76.8093826 598.678692,75.3791576 598.298528,75.6136961 C598.049694,75.8206419 599.121064,76.6944127 600.413619,77.5911776 L602.328259,78.9064327 C602.771313,79.2185068 603.249644,79.5075433 603.759056,79.771006 C605.936354,81.2564165 603.517134,79.0306002 604.540118,79.3111266 C605.537014,79.8042485 606.309658,80.4710977 606.772714,81.2380213 C607.000812,81.5737333 607.208173,81.9140441 607.46392,82.2773488 C607.770657,82.676589 608.112236,83.0635487 608.486904,83.4362449 C609.641218,83.9375135 611.161872,85.0044337 611.618067,84.438782 C612.509723,85.1699903 611.825429,86.0713539 613.10416,86.3058924 C614.763055,87.8694824 612.482075,86.6554008 611.42453,85.4091276 C612.179709,86.467156 613.067596,87.4809471 614.078761,88.4397329 C615.170866,89.6584134 616.511806,91.0242552 617.963338,92.459079 C619.801946,94.2434111 619.933275,92.6706235 621.813355,94.9240326 C621.585258,95.6000554 620.320351,93.9214955 619.877979,94.0962497 C623.917092,98.488894 627.523548,103.051285 630.674616,107.754668 C631.471807,108.907433 632.262086,110.06173 633.045452,111.21756 C633.759699,112.394851 634.485465,113.575209 635.222751,114.758632 C636.798701,117.108615 638.10508,119.545976 639.632645,122.020128 C639.494404,124.135573 640.392972,124.112579 641.256979,128.122727 C642.093339,127.745626 640.289291,124.084986 642.273052,125.115116 C642.044954,125.717558 642.197019,126.798275 642.577183,128.164116 C642.673952,128.504427 642.784545,128.863133 642.90205,129.235635 C643.019555,129.608138 643.157796,129.999035 643.261477,130.403729 C643.489575,131.208518 643.752233,132.063894 644.028715,132.937665 C645.279798,136.414353 646.233662,140.295735 646.793539,142.815875 C647.042373,144.296686 645.915708,143.188377 645.590841,143.588472 C645.659961,144.696781 645.99174,144.747368 646.116157,145.621139 C646.606914,147.630812 646.053949,143.542484 647.063109,144.871535 C647.305032,148.256248 646.648386,147.221519 645.680698,146.333952 C646.174311,147.177023 646.46812,148.065989 646.551617,148.969061 C646.616156,149.43531 646.632323,149.903965 646.600001,150.371693 C646.600001,150.831573 646.558529,151.291452 646.530881,151.751331 C646.441024,153.544861 646.434112,155.099254 647.712843,155.890246 C647.616074,157.729764 646.973253,158.189643 646.330431,158.649523 C646.503336,159.805295 646.773328,160.953724 647.139142,162.089421 C647.228999,162.342354 647.311944,162.58609 647.394888,162.829827 L647.609162,163.533442 C647.754315,163.993321 647.913293,164.453201 648.065358,164.880889 C647.464009,166.85837 646.19219,166.127162 645.99174,169.60385 C645.99174,170.822531 646.219838,170.279873 646.468672,169.709622 C646.717506,169.139372 646.917956,168.53693 647.028549,169.672832 C646.517057,172.211366 646.337343,171.365188 645.735994,170.965093 C645.4526,173.825543 645.348919,174.441782 644.401966,176.377874 C644.249901,177.274639 644.567856,177.486183 644.401966,178.456529 C645.024052,178.286374 645.293622,176.980316 645.494072,175.609875 C645.694522,174.239435 645.825851,172.813809 646.544705,172.413713 C646.66221,172.901186 646.337343,174.133662 646.012476,175.485708 C645.68761,176.837753 645.176117,178.281775 645.245238,179.256719 C644.636977,179.077366 644.084012,179.472862 643.600168,180.443208 C643.088675,181.868834 643.600168,181.776858 644.001067,181.896427 C643.703848,182.416091 643.37207,183.013934 643.012643,183.662364 C642.653215,184.310794 642.321437,185.014409 641.962009,185.754815 C641.270803,187.235627 640.641806,188.8636 639.888392,190.436388 C639.134977,192.009175 638.568188,193.581963 638.10508,194.961601 C637.62325,196.078289 637.267442,197.217359 637.040623,198.369307 C636.466922,199.169498 635.920869,200.024873 635.381729,200.917039 C634.842588,201.809205 634.220503,202.715168 633.660626,203.676316 C632.513224,205.552624 631.469503,207.539303 630.25298,209.411012 L628.53879,212.197881 C628.255395,212.657761 627.992737,213.11764 627.70243,213.53613 C627.412124,213.954621 627.107993,214.382309 626.817687,214.791601 C625.656461,216.419574 624.571267,217.872793 623.575931,219.004097 C623.382393,219.592742 623.375481,219.749101 623.575931,219.680119 C623.897609,219.463609 624.163794,219.213494 624.363906,218.939713 C625.055111,218.213104 625.849998,217.261154 626.133393,217.560075 C624.474498,219.436383 621.502313,221.997912 619.090004,224.541045 C617.885635,225.69993 616.778031,226.902032 615.772215,228.141901 C614.984324,229.064541 614.470415,230.079368 614.258474,231.131117 C612.827678,232.667114 613.567268,230.077993 611.687188,232.455569 C610.242568,234.364069 614.293035,231.1955 612.993567,233.02582 C610.774796,235.532163 610.04903,235.219445 609.426945,234.713577 C607.090668,237.137142 610.698764,234.759565 609.364736,236.336952 C608.196598,237.569428 607.920116,237.25671 607.53304,237.146339 C606.841834,237.808566 607.415535,237.794769 607.53304,237.997116 C605.964003,239.133018 604.602327,240.103364 603.489485,241.064512 C602.376904,241.949767 601.464139,242.938161 600.779958,243.998543 C598.70634,246.045006 599.328425,243.966351 597.434521,245.700096 C596.832309,246.13553 596.3314,246.628458 595.948428,247.162513 C595.789451,247.475231 595.948428,247.622392 596.300943,247.714368 C595.029387,248.567773 593.851324,249.480669 592.775793,250.446052 C592.305773,250.859943 591.79428,251.301428 591.096162,251.853283 C590.398044,252.405138 589.458004,253.030574 588.206921,253.858357 C587.515715,253.821567 588.206921,253.205328 588.130889,252.888012 C587.439683,253.80777 586.313017,254.49759 584.999726,255.29778 C583.378341,256.237234 581.899023,257.279998 580.58292,258.411163 C581.875475,258.374373 584.405289,256.571646 582.414615,258.659498 C580.888837,259.286712 579.512044,260.061687 578.329588,260.958895 C577.714415,261.418775 577.078505,261.878654 576.408035,262.366126 C575.737566,262.853598 575.025624,263.359466 574.334418,263.87913 C571.8599,264.729906 571.970493,264.532158 570.878388,264.366602 C568.984483,265.507103 568.77021,265.985377 568.355486,266.564825 C568.936099,266.564825 569.302438,265.966982 570.65029,265.217379 C571.071925,265.677258 567.761049,267.319028 565.597574,268.592894 L564.906368,268.064032 C563.869559,268.556103 562.791278,269.107958 561.602404,269.724197 C560.413529,270.340435 559.093326,271.002662 557.676354,271.793654 C555.88613,272.87897 558.796107,272.566252 557.213246,273.591783 C556.562814,273.781821 555.936406,274.006353 555.340078,274.263207 L553.162779,275.123181 C551.711246,275.684234 550.397955,276.153311 549.768958,276.04294 C547.09399,277.753691 551.642126,275.716426 551.365643,276.337263 C549.983231,276.935106 548.490226,277.661716 547.017958,278.388325 C545.545689,279.114934 544.03886,279.823149 542.621888,280.476178 C541.373392,281.077238 540.056075,281.612334 538.682014,282.076558 C537.736304,282.420626 536.669691,282.590497 535.592323,282.568629 C534.183115,283.24562 532.932298,284.057678 531.880547,284.978397 C530.083412,285.69121 530.560344,284.766852 528.742472,285.438276 C526.765623,286.293652 525.134377,287.080046 524.788774,287.613506 C523.91918,287.701276 523.070856,287.865188 522.265872,288.100978 C521.249766,288.373335 520.255417,288.680328 519.286774,289.020737 C517.213156,289.742748 515.001297,290.671704 512.941504,291.4489 C514.413772,291.4489 514.946001,291.660445 517.745385,290.280807 C516.774833,290.857336 515.749747,291.391891 514.676431,291.881187 C513.60231,292.34923 512.487522,292.774595 511.337906,293.155053 C510.183592,293.54595 509.00163,293.904656 507.785107,294.249566 C506.568585,294.594475 505.317502,294.934786 504.00421,295.238307 C501.398364,295.854545 498.6681,296.493777 495.771947,297.229584 C492.624366,297.98565 489.541555,298.856132 486.537436,299.837101 C487.228642,299.837101 488.770031,299.377221 488.693998,299.786514 C487.816167,300.586704 481.546929,300.522321 482.272695,301.759397 C481.159853,302.035324 481.305006,301.681217 481.042348,301.534056 C478.277524,302.200881 479.556255,303.373573 476.743047,303.419561 C472.913766,304.445092 476.051841,303.212616 475.415932,303.010269 C474.233969,303.350579 472.353889,303.80586 470.183502,304.320925 L463.181586,305.893713 C462.006536,306.160443 460.872958,306.445568 459.808501,306.698502 C458.744044,306.951435 457.734883,307.19977 456.912348,307.443506 C455.218893,307.930978 454.071491,308.363265 453.884866,308.772558 C451.65227,309.264629 449.392027,309.692317 447.138695,310.152196 C446.44749,309.885466 448.873622,309.554353 448.845974,309.273826 C440.122955,310.828219 430.121205,312.456192 423.769022,314.258919 C424.349635,313.982991 425.953233,313.725459 425.545421,313.440334 C424.318503,313.511754 423.10249,313.650184 421.909678,313.854225 C420.69442,314.04621 419.494755,314.279522 418.315407,314.553242 C415.916922,315.082103 413.518437,315.758126 411.037008,316.268592 C408.272184,316.158221 412.868704,315.808713 412.799583,315.321241 C411.175249,315.495995 409.129279,315.675348 406.958893,315.923683 C404.788506,316.172017 402.479878,316.447945 400.302579,316.69628 C395.947982,317.156159 392.153261,317.703416 391.102628,318.075918 C377.008938,318.761139 361.885351,320.315531 350.197059,321.037542 C349.409084,320.913374 349.091129,320.692632 349.139513,320.384513 C342.227454,320.255747 342.358783,321.134116 338.170075,321.382451 C338.246107,320.803003 334.340794,320.651243 330.746523,320.73862 C327.152252,320.825997 323.834463,321.088128 325.140842,321.506619 C323.055339,320.970364 320.819288,320.742814 318.58821,320.839793 C316.134428,320.881183 313.35578,321.04214 310.114024,321.189302 C310.901999,321.046739 311.20613,320.816799 311.143921,320.513279 C306.7755,320.642045 306.955213,320.563866 305.109693,321.074332 C303.277997,320.384513 303.955379,320.674237 300.126098,320.743219 C300.229779,320.499483 300.326548,320.255747 299.165322,320.191363 C294.25776,320.692632 296.448883,319.731484 294.147167,320.343124 C287.518501,319.06006 274.544565,319.009473 268.302976,318.618576 C266.982772,318.407031 266.519664,318.112709 266.443631,317.781595 C262.220363,318.241475 258.480939,317.082579 255.460369,317.349309 C252.118698,316.613841 248.686321,316.075242 245.202872,315.739731 C243.267495,315.537384 241.221526,315.279851 239.023491,315.0959 C236.825456,314.911948 234.461531,314.686607 231.945542,314.396883 C229.236014,314.074967 228.669225,313.697866 230.141494,313.633483 C226.443542,313.320765 224.473605,312.713724 224.176387,313.205795 C220.836214,312.352197 217.428034,311.621418 213.967274,311.016769 C210.766991,310.428124 207.746421,309.949849 204.808795,309.512964 C201.87117,309.076078 199.05105,308.593205 196.251665,308.091936 C193.41295,307.575169 190.639603,306.910901 187.957194,306.105257 C184.148649,305.456827 188.786641,306.887052 184.881327,306.073066 L185.095601,305.576396 C182.330777,305.318863 178.612089,304.256542 174.962522,303.318388 C171.312954,302.380234 167.780892,301.409888 165.285638,301.3639 C161.877993,299.772718 149.387901,297.652674 148.952441,296.525969 C158.497996,299.170276 171.29913,301.695014 186.56787,304.583056 C184.107177,302.978077 172.225346,300.729267 163.529975,298.604624 C158.650061,297.381345 153.542049,295.643001 150.853258,294.925589 C147.881072,294.180584 145.012567,293.77589 140.623409,292.589401 C139.240997,291.724828 136.559118,290.809668 133.642229,289.797933 C130.72534,288.786198 127.518144,287.783661 125.078187,286.794921 C126.370742,286.335041 128.223174,286.141892 131.126239,286.482203 C132.897803,286.695091 134.640681,287.002674 136.337932,287.401961 C138.41155,287.861841 140.782387,288.445888 143.567947,289.241479 C138.038299,286.845507 124.794793,283.658543 116.286047,280.678524 C118.304772,281.037974 120.251661,281.556721 122.085265,282.223719 C124.244905,282.99453 126.480276,283.667483 128.776139,284.237991 C127.953604,283.318232 125.900722,282.278905 123.246491,281.188991 C121.912464,280.637135 120.412547,280.089879 118.857333,279.501233 C117.30212,278.912588 115.670874,278.319343 114.018892,277.7215 C114.482,277.468566 117.944941,278.848204 117.861997,278.296349 C115.622489,277.270818 112.152635,276.116521 111.475254,275.256546 C112.16646,274.911637 113.853002,275.16457 116.057949,275.73942 C118.262896,276.314269 121.000072,277.215632 123.875489,278.089403 C126.750905,278.963174 129.695443,279.928921 132.349674,280.554357 C135.003905,281.179793 137.284884,281.607481 138.764065,281.49711 C178.568307,292.827228 220.386682,300.724547 263.201875,304.996948 L267.203958,305.397043 L271.226777,305.737354 L275.242683,306.077664 L277.247181,306.24782 L279.265502,306.385784 L287.31114,306.951435 L295.377513,307.411315 C306.132678,307.944775 316.894755,308.236032 327.663744,308.285086 C338.432733,308.334139 349.174074,308.085804 359.887766,307.540081 L367.905755,307.107794 L375.903008,306.55134 C378.571064,306.385784 381.218382,306.114455 383.879525,305.898311 L387.860872,305.553402 L391.828394,305.144109 C394.461889,304.858984 397.11612,304.619847 399.742702,304.293332 L407.629362,303.336783 C412.854879,302.614772 418.094221,301.920354 423.271353,301.064979 C433.639443,299.427808 443.869291,297.502446 453.960898,295.288893 C464.052505,293.07534 473.916015,290.546004 483.551426,287.700883 C493.180323,284.897858 502.577916,281.755493 511.704245,278.287152 C520.766179,274.839392 529.534823,271.061088 537.970072,266.969519 C540.04369,265.930192 542.151868,264.923056 544.190925,263.856136 L550.24589,260.63698 C552.222739,259.524072 554.158115,258.388169 556.114228,257.270662 L557.579585,256.424484 L558.961997,255.546115 L561.782117,253.793974 C569.225982,249.098926 576.209955,244.091307 582.691098,238.801905 C589.06465,233.527616 594.899973,227.975171 600.157873,222.181863 C612.005143,209.084498 620.728162,194.934008 625.310858,180.16728 C629.928264,165.27462 630.012874,149.917305 625.559692,135.002523 C623.310085,127.397193 619.824359,119.977131 615.163954,112.873126 C610.414491,105.643978 604.353682,98.8285335 597.116566,92.5786476 C596.19035,91.7922538 595.298695,90.9920636 594.351742,90.2148674 L591.365733,87.9660571 C590.363484,87.2210525 589.395796,86.4484551 588.352075,85.7172468 L585.158703,83.5558136 C580.750125,80.6889324 576.100014,77.9912147 571.230903,75.4757323 C561.027489,70.3229149 550.066761,65.8700737 538.516124,62.1852173 C518.208493,55.581349 493.159189,49.9616226 468.76653,46.2825873 C456.559833,44.4430696 444.491377,43.0634314 433.224719,42.0792895 C421.958062,41.0951475 411.47938,40.5340946 402.438406,40.2075802 C389.941402,39.7630302 376.967466,39.6925153 363.516598,39.9960357 C360.157337,40.0466225 356.763515,40.1983827 353.342046,40.2995561 C349.920576,40.4007296 346.471458,40.5892802 342.973956,40.7364416 C339.476454,40.883603 335.985864,41.1043451 332.446889,41.329686 C328.907915,41.5550269 325.341292,41.7895654 321.747021,42.0654931 C307.365329,43.1354792 292.511313,44.5749017 277.184972,46.3837607 C269.519498,47.271328 261.743431,48.3060567 253.829123,49.3683781 C245.914814,50.4306996 237.931385,51.6355836 229.747507,52.9140484 C211.382164,55.7698995 193.196535,59.0856301 175.404894,63.1279701 C166.515985,65.1545054 157.742277,67.3803217 149.08377,69.8054192 C140.425264,72.2305166 131.969511,74.9177453 123.716511,77.8671052 C115.457749,80.7894925 107.448263,84.0135728 99.7247521,87.5245729 C95.8609108,89.2675159 92.1214865,91.1162311 88.4097105,93.0063355 C84.6979344,94.8964399 81.1243996,96.8923165 77.6683697,98.9847678 C70.688817,103.096198 64.1888992,107.554533 58.2247459,112.321271 C55.2179999,114.680452 52.4877363,117.1684 49.8127692,119.679341 C47.2483951,122.236271 44.7324054,124.825392 42.5620186,127.529483 C40.3457456,130.213464 38.354334,132.976963 36.5969111,135.807312 L35.3734766,137.941153 L34.7652153,139.008073 L34.2398988,140.093388 L33.1685296,142.227229 L32.2837859,144.420854 C27.4457455,156.192449 28.5778921,168.697045 35.5048057,179.997125 C38.9862216,185.746906 43.6100696,191.160345 49.2528924,196.092904 C54.9705615,201.135186 61.5100727,205.740598 68.7518128,209.824904 C76.0642634,213.978455 83.983525,217.634343 92.3910568,220.737842 C94.4646747,221.524236 96.6419735,222.255444 98.8054482,222.977455 L102.074852,224.016782 L105.427201,224.987128 L108.786462,225.957473 C109.899304,226.293185 111.067442,226.550718 112.20102,226.849639 L115.65705,227.72341 L117.37124,228.160296 L119.119992,228.551193 C128.472762,230.707598 138.024181,232.461821 147.715182,233.803016 C148.952441,233.963974 154.627242,234.548021 151.468431,234.414656 C149.208187,234.175518 147.010152,233.858202 144.832854,233.55928 C142.655555,233.260358 140.498992,232.975233 138.397726,232.639521 C136.29646,232.303809 134.202106,231.977295 132.176872,231.61399 L126.12882,230.478088 C125.126571,230.298735 124.151971,230.08719 123.177371,229.871047 L120.260481,229.236414 L117.385065,228.610978 C116.4312,228.394834 115.504984,228.151098 114.571856,227.921158 C112.712512,227.461279 110.853168,227.0014 109.042209,226.54152 L103.671538,225.019319 C90.0489222,221.068028 77.394835,215.778749 66.1321421,209.328234 C69.4222825,212.08751 74.571767,215.021541 80.4884901,217.606063 C86.4083198,220.130245 92.5867021,222.375355 98.9782497,224.324901 C109.191471,227.474755 119.751596,230.100649 130.566362,232.179642 C141.446725,234.256015 152.499324,235.909772 163.668216,237.132543 C186.125498,239.652682 209.142657,240.779387 232.664396,241.602571 C223.727103,242.168223 211.824536,241.280655 202.355014,240.839171 C203.225934,241.197877 205.582946,241.358835 208.133496,241.469206 C210.44976,241.525626 212.758366,241.679224 215.045556,241.929085 C207.573619,243.635238 196.382995,241.220871 186.540222,241.929085 C190.514656,242.306186 194.413058,242.494737 198.187042,242.678689 C201.961027,242.86264 205.638243,242.950018 209.170305,243.060389 C216.23443,243.294927 222.773238,243.58925 228.634665,244.476817 C225.773072,245.856455 213.428134,245.999018 205.942373,245.856455 C205.56221,246.136982 206.688876,246.210563 207.891574,246.261149 C200.792889,246.261149 192.954613,246.261149 184.736174,245.999018 C180.630411,245.91624 176.441702,245.713893 172.183874,245.539139 C167.926045,245.364384 163.661304,245.079259 159.389651,244.738948 C142.296128,243.538663 125.403054,241.018524 112.318525,238.056901 C109.553701,237.597021 107.908631,237.597021 105.150719,237.086555 C103.802867,236.764639 102.482664,236.378341 101.162461,236.00124 L97.1672901,234.833146 L95.1766169,234.258297 L93.1928558,233.637459 L91.2298308,232.993628 L89.2668059,232.331402 C84.0061654,230.563489 78.8929987,228.607682 73.9496816,226.472538 C63.9856993,222.171377 54.7828485,217.136047 46.5157168,211.462074 C38.0637672,205.674329 30.8343054,199.14861 25.0261233,192.064361 C19.0419842,184.773685 15.0141551,176.844682 13.1235565,168.633505 C12.1977069,164.477324 11.8782647,160.271303 12.1696923,156.074198 C12.1696923,155.545337 12.252637,155.025673 12.3148455,154.506009 L12.5152952,152.93782 L12.722657,151.37423 L13.0544359,149.824437 C13.296358,148.794307 13.4760715,147.750381 13.7802022,146.729448 L14.7340664,143.675849 C16.1478279,139.647577 18.0194685,135.696577 20.3328347,131.856948 C22.6512797,128.064687 25.3412417,124.377731 28.3853843,120.819842 C31.4190719,117.298595 34.7538584,113.89603 38.3733105,110.628915 C41.9771458,107.384308 45.8323786,104.266707 49.9233622,101.288764 C58.0470982,95.3927356 66.9154734,89.9708409 76.431111,85.0826132 C84.2769821,80.7966592 92.5538679,76.8724122 101.203933,73.337293 C105.441025,71.5759549 109.761063,69.943383 114.101836,68.3476014 C118.44261,66.7518199 122.852504,65.275607 127.317694,63.8591784 C145.136984,58.1474761 163.730425,53.5118916 183.540388,49.2672047 C203.350351,45.0225177 225.365261,41.3572788 246.543812,38.3726614 C257.146911,36.8826521 267.528825,35.5765946 277.295565,34.4774828 C287.062305,33.378371 296.200048,32.5000013 304.29407,31.7825894 C305.55923,31.5128519 306.867688,31.3430629 308.192472,31.2767221 C309.761509,30.8168427 308.068055,31.0651776 308.061143,30.586903 C311.463245,30.6625776 314.869016,30.6149864 318.263343,30.4443403 C319.984446,30.3615621 321.719373,30.251191 323.412827,30.1316223 C325.106282,30.0120537 326.820473,29.9062814 328.479367,29.7775152 C331.797156,29.5107851 334.997439,29.2762466 337.914329,29.1014925 C339.372773,29.0187142 340.769009,28.9405347 342.061564,28.9037443 C343.354119,28.866954 344.591378,28.8623552 345.70422,28.9037443 C347.038247,28.7933733 346.485283,28.4438649 346.630436,28.1679373 C350.176322,28.374883 348.607285,28.2967035 352.581719,27.9425963 C350.729287,28.6830022 355.007852,28.8025708 359.583636,28.4300685 C361.235618,27.7356506 358.989198,28.1725361 358.546827,27.593088 C362.445228,27.2665736 361.525924,27.9379976 361.567397,28.3886794 C364.878273,28.5358408 368.845796,28.2691107 372.751109,28.1633385 C374.707222,28.0943566 376.635687,28.0437698 378.453558,28.0575662 C380.128456,28.0660585 381.798765,28.175342 383.444066,28.3840806 Z M198.750993,306.766159 C195.516918,305.875047 192.166497,305.223244 188.750993,304.820723 C190.226619,305.001915 192.183141,305.612248 194.054024,306.103376 C195.924906,306.594503 197.690387,306.971193 198.750993,306.761391 L198.750993,306.766159 Z M645.402396,136.367681 C644.712741,137.76465 643.443775,129.357803 643.402396,132.862742 C643.77481,133.618808 645.078258,138.776075 645.402396,136.362674 L645.402396,136.367681 Z" id="Shape" transform="translate(330.065358, 174.506619) rotate(-5.000000) translate(-330.065358, -174.506619) "></path>
                </g>
                <text id="hook" font-family="RedRing-Medium, Red Ring" font-size="58" font-weight="400" line-spacing="60" letter-spacing="0.5" fill="#000000">
                    <tspan x="140" y="214.200002">100 Leaders</tspan>
                    <tspan x="140" y="274.200002">gather in Berlin</tspan>
                </text>
            </g>
        </g>
    </g>
</svg>