<?xml version="1.0" encoding="UTF-8"?>
<svg viewBox="0 0 361 620" version="1.1" xmlns="http://www.w3.org/2000/svg" xmlns:xlink="http://www.w3.org/1999/xlink">
    <!-- Generator: Sketch 55.1 (78136) - https://sketchapp.com -->
    <title>Fill 742</title>
    <desc>Created with Sketch.</desc>
    <defs>
        <polygon id="path-1" points="0 5154 1400 5154 1400 0.196 0 0.196"></polygon>
    </defs>
    <g id="Page-4" stroke="none" stroke-width="1" fill="none" fill-rule="evenodd">
        <g id="Fightback-Website-R2-Desktop" transform="translate(-878.000000, -266.000000)">
            <g id="Group-714" transform="translate(0.000000, -0.200000)">
                <mask id="mask-2" fill="white">
                    <use xlink:href="#path-1"></use>
                </mask>
                <g id="Clip-713"></g>
            </g>
            <g id="Group-766" transform="translate(160.000000, 47.800000)">
                <path d="M1056.1259,386.0908 C1056.2529,386.0978 1056.4599,386.0198 1056.7039,385.9008 C1056.4599,386.0198 1056.2529,386.0988 1056.1259,386.0908 Z M899.2549,523.1248 C900.9989,523.1938 913.1199,534.0598 930.0839,550.2488 C940.7289,539.9178 953.5729,527.0878 967.2089,513.2348 C960.7089,511.9328 956.2339,510.8748 955.9639,510.4228 C954.9429,508.7158 968.6169,443.3038 970.9339,441.7258 C973.2509,440.1478 991.3739,444.7638 992.6349,447.8618 C993.8959,450.9588 984.6349,480.3128 984.6349,480.3128 L1015.9919,455.6758 L1015.9949,455.6758 L1015.9919,455.6758 L1025.0989,448.5218 C1025.0989,448.5218 1025.9569,449.5118 1027.2219,451.0068 C1055.0009,421.6128 1076.9729,397.3998 1079.1839,392.9788 C1079.1839,392.9788 1073.6739,386.7638 1065.7719,378.4528 C1065.0849,379.0808 1064.4329,379.6708 1063.8099,380.2288 C1064.4329,379.6708 1065.0849,379.0808 1065.7709,378.4528 C1050.4349,362.3208 1026.2459,336.4758 1015.5039,336.4228 C1001.0189,336.3508 938.9089,415.0438 938.9089,415.0438 C938.9089,415.0438 941.3959,227.8258 941.5229,224.2028 C941.6049,221.9658 938.8779,220.5328 934.3519,219.6858 L934.3499,219.6858 C927.6019,218.4198 916.8419,218.4618 905.4109,219.0898 C905.2899,219.2228 905.1599,219.3628 905.0379,219.4968 C882.3459,221.0448 855.2449,224.2028 855.2449,224.2028 L858.2479,268.2528 C858.2499,268.2508 858.2519,268.2488 858.2529,268.2468 C858.2519,268.2488 858.2499,268.2508 858.2479,268.2528 L868.5899,419.9408 C868.5899,419.9408 795.9619,327.7618 783.4939,325.0898 C771.0249,322.4168 717.5879,369.6218 717.5879,380.3098 C717.5879,388.4398 819.9149,496.5768 872.2019,548.0418 C887.0119,533.0098 897.5429,523.0568 899.2549,523.1248 L899.2549,523.1248 Z" id="Fill-734" fill="#821E78"></path>
                <path d="M1019.6595,515.9707 C1019.6685,515.9847 1019.6845,516.0007 1019.7065,516.0167 C1019.7275,516.0327 1019.7555,516.0507 1019.7865,516.0677 C1019.7555,516.0507 1019.7275,516.0327 1019.7065,516.0167 C1019.6845,516.0007 1019.6685,515.9847 1019.6595,515.9707 M1021.5705,521.9857 C1021.5705,521.9857 1022.1045,519.8737 1022.7395,516.9337 C1022.5025,516.8777 1022.2775,516.8237 1022.0655,516.7707 C1022.2775,516.8237 1022.5025,516.8777 1022.7395,516.9337 C1023.9725,511.2277 1026.0045,502.1677 1024.4305,499.8317 C1022.3075,496.6807 996.0775,494.8337 996.0775,494.8337 C996.0775,494.8337 1037.0315,467.7337 1037.8365,467.2257 C1038.3325,466.9137 1038.2415,466.1107 1037.7565,465.0047 L1037.7565,465.0037 C1037.0345,463.3537 1035.4365,461.0277 1033.6135,458.6427 C1033.5665,458.6357 1033.5165,458.6287 1033.4705,458.6217 C1031.3575,455.9327 1028.9205,453.0137 1027.2215,451.0067 C1008.4345,470.8867 986.9925,493.1347 967.2085,513.2347 C985.2525,516.8497 1018.9065,522.3457 1021.5705,521.9857" id="Fill-736" fill="#14C8B4"></path>
                <path d="M1015.9921,455.6763 L1015.9941,455.6763 L1015.9921,455.6763 L984.6351,480.3123 C984.6351,480.3123 993.8961,450.9593 992.6351,447.8613 C991.3731,444.7633 973.2511,440.1483 970.9331,441.7263 C968.6171,443.3033 954.9431,508.7163 955.9641,510.4223 C956.2341,510.8743 960.7091,511.9323 967.2081,513.2353 C986.9931,493.1343 1008.4341,470.8863 1027.2211,451.0073 C1025.9561,449.5123 1025.0981,448.5223 1025.0981,448.5223 L1015.9921,455.6763 Z" id="Fill-738" fill="#0F8778"></path>
                <path d="M797.7137,554.8101 C797.6977,554.7911 797.6607,554.7731 797.6127,554.7541 C797.6607,554.7731 797.6977,554.7911 797.7137,554.8101 M843.7357,552.0921 C842.8287,550.9811 798.2537,549.9901 795.7197,550.7191 C795.7197,550.7191 795.5607,552.2821 795.4157,554.4461 C795.5907,554.4611 795.7557,554.4761 795.9137,554.4911 C795.7557,554.4761 795.5907,554.4611 795.4157,554.4461 C795.1337,558.6461 794.6337,565.3221 796.0017,566.8241 C797.8467,568.8491 816.7527,567.4181 816.7527,567.4181 C816.7527,567.4181 790.3767,591.0431 789.8557,591.4901 C789.5337,591.7651 789.6827,592.3281 790.1447,593.0661 L790.1457,593.0661 C790.8327,594.1681 792.2167,595.6601 793.7677,597.1711 C793.8017,597.1701 793.8377,597.1711 793.8717,597.1701 C796.9927,600.1311 800.9027,603.4981 800.9027,603.4981 L806.6497,597.4401 L806.6477,597.4401 L806.6497,597.4401 L826.4377,576.5781 C826.4377,576.5781 823.8067,592.9121 823.8777,598.7071 C830.2587,591.8661 836.6277,585.0871 842.8107,578.5591 C843.6557,565.8121 844.2047,552.6671 843.7357,552.0921" id="Fill-740" fill="#D2D2DC"></path>
                <path d="M766.3876,692.4038 C766.2746,692.3998 766.0946,692.4718 765.8806,692.5818 C766.0946,692.4718 766.2746,692.3988 766.3876,692.4038 Z M930.0836,550.2488 C914.5976,565.2788 903.7676,575.0188 901.9466,574.9118 C900.1366,574.8048 888.6406,564.2228 872.2016,548.0418 C863.5606,556.8118 853.4646,567.3098 842.8106,578.5588 C842.0216,590.4578 840.9736,602.0088 840.2566,602.6698 C838.7686,604.0378 825.3566,602.6448 824.1316,600.5668 C823.9646,600.2838 823.8886,599.6218 823.8776,598.7068 C786.4396,638.8418 748.6086,681.0708 745.9196,686.7168 C745.9196,686.7168 750.8876,692.1088 758.0046,699.3098 C758.5996,698.7438 759.1646,698.2118 759.7056,697.7078 C759.1646,698.2118 758.5996,698.7438 758.0056,699.3098 C771.8156,713.2868 793.6036,735.6868 803.0856,735.5498 C815.8716,735.3668 869.3516,664.8548 869.3516,664.8548 C869.3516,664.8548 870.3426,830.1378 870.2916,833.3378 C870.2576,835.3138 872.6886,836.5318 876.6986,837.2028 L876.6996,837.2028 C882.6776,838.2048 892.1736,837.9848 902.2516,837.2368 C902.3576,837.1168 902.4696,836.9908 902.5746,836.8708 C922.5766,835.1188 946.4426,831.8698 946.4426,831.8698 L943.0416,793.0418 C943.0406,793.0438 943.0386,793.0458 943.0366,793.0468 C943.0386,793.0458 943.0406,793.0438 943.0416,793.0418 L931.3326,659.3368 C931.3326,659.3368 997.0036,739.4588 1008.0546,741.6048 C1019.1046,743.7518 1065.4656,701.1788 1065.28413,691.7458 C1065.1486,684.7748 978.1576,596.1268 930.0836,550.2488 L930.0836,550.2488 Z" id="Fill-742" fill="#FA0050"></path>
                <path d="M930.0834,550.249 C913.1194,534.06 900.9994,523.194 899.2544,523.123664 C897.5424,523.057 887.0114,533.01 872.2014,548.042 C888.6404,564.223 900.1364,574.805 901.9464,574.912 C903.7674,575.019 914.5974,565.278 930.0834,550.249" id="Fill-744" fill="#A028A0"></path>
                <path d="M840.2562,602.6694 C840.9742,602.0084 842.0212,590.4574 842.8102,578.5594 C836.6282,585.0864 830.2592,591.8664 823.8772,598.7074 C823.8882,599.6224 823.9642,600.2834 824.1312,600.5664 C825.3562,602.6454 838.7682,604.0384 840.2562,602.6694" id="Fill-746" fill="#D2003C"></path>
            </g>
        </g>
    </g>
</svg>