<?xml version="1.0" encoding="UTF-8"?>
<svg width="30px" height="14px" viewBox="0 0 30 14" version="1.1" xmlns="http://www.w3.org/2000/svg" xmlns:xlink="http://www.w3.org/1999/xlink">
    <!-- Generator: Sketch 54.1 (76490) - https://sketchapp.com -->
    <title>export/icon-menu</title>
    <desc>Created with Sketch.</desc>
    <g id="fightback" stroke="none" stroke-width="1" fill="none" fill-rule="evenodd">
        <g id="mobile/header" transform="translate(-320.000000, -43.000000)" fill="#000000" fill-rule="nonzero">
            <path d="M326,57 C325.447715,57 325,56.5522847 325,56 C325,55.4477153 325.447715,55 326,55 L344,55 C344.552285,55 345,55.4477153 345,56 C345,56.5522847 344.552285,57 344,57 L326,57 Z M326,51 C325.447715,51 325,50.5522847 325,50 C325,49.4477153 325.447715,49 326,49 L344,49 C344.552285,49 345,49.4477153 345,50 C345,50.5522847 344.552285,51 344,51 L326,51 Z M326,45 C325.447715,45 325,44.5522847 325,44 C325,43.4477153 325.447715,43 326,43 L344,43 C344.552285,43 345,43.4477153 345,44 C345,44.5522847 344.552285,45 344,45 L326,45 Z M348,45 C347.447715,45 347,44.5522847 347,44 C347,43.4477153 347.447715,43 348,43 L349,43 C349.552285,43 350,43.4477153 350,44 C350,44.5522847 349.552285,45 349,45 L348,45 Z M348,57 C347.447715,57 347,56.5522847 347,56 C347,55.4477153 347.447715,55 348,55 L349,55 C349.552285,55 350,55.4477153 350,56 C350,56.5522847 349.552285,57 349,57 L348,57 Z M321,51 C320.447715,51 320,50.5522847 320,50 C320,49.4477153 320.447715,49 321,49 L322,49 C322.552285,49 323,49.4477153 323,50 C323,50.5522847 322.552285,51 322,51 L321,51 Z" id="icon-menu"></path>
        </g>
    </g>
</svg>