<svg width="144" height="50" xmlns="http://www.w3.org/2000/svg"><path d="M1.69 16.27V2.906c0-.572-.052-1.014-.156-1.326C1.43 1.268 1.196.826.832.254h10.946l-1.612 3.588c-.243-.07-.576-.16-1.001-.273a16.337 16.337 0 0 0-1.196-.273c-.373-.07-.914-.104-1.625-.104v4.862h4.784l-1.976 3.354a6.915 6.915 0 0 0-1.326-.39l-1.482-.234v5.512c0 .537.048.962.143 1.274.095.312.334.789.715 1.43H.832c.104-.173.225-.399.364-.676.139-.277.238-.507.299-.689a3.78 3.78 0 0 0 .143-.598c.035-.217.052-.472.052-.767zM19.386.254c-.312.52-.546.988-.702 1.404a3.658 3.658 0 0 0-.208 1.248v13.39c0 .884.295 1.785.884 2.704h-6.448c.347-.503.585-.949.715-1.339s.195-.845.195-1.365V2.854c0-.572-.056-1.018-.169-1.339-.113-.32-.368-.741-.767-1.261h6.5zM37.628 5.35c-.97-1.179-1.863-1.998-2.678-2.457-.815-.46-1.742-.689-2.782-.689-1.543 0-2.821.68-3.835 2.041-1.014 1.36-1.521 3.072-1.521 5.135 0 2.115.52 3.857 1.56 5.226 1.04 1.37 2.392 2.054 4.056 2.054.468 0 .806-.026 1.014-.078l.598-.156V12.11c0-.399-.039-.732-.117-1.001a5.282 5.282 0 0 0-.273-.741 8.138 8.138 0 0 0-.442-.806h6.214c-.312.555-.524 1.001-.637 1.339-.113.338-.169.741-.169 1.209v3.562c0 .243.017.464.052.663.035.2.156.585.364 1.157-1.63.624-3.033 1.083-4.212 1.378a16.973 16.973 0 0 1-3.484.338c-2.756 0-5.027-.893-6.812-2.678-1.785-1.785-2.678-4.047-2.678-6.786 0-2.825.966-5.152 2.899-6.981C26.678.934 29.169.02 32.22.02c1.075 0 1.928.065 2.561.195s1.582.446 2.847.949V5.35zm5.112 10.92V2.906c0-.59-.052-1.031-.156-1.326-.07-.295-.303-.737-.702-1.326h6.396c-.59 1.023-.884 1.907-.884 2.652v5.07h5.434v-5.07c0-.468-.039-.828-.117-1.079a5.937 5.937 0 0 0-.286-.741c-.113-.243-.256-.52-.429-.832h6.37c-.312.45-.529.854-.65 1.209-.121.355-.182.836-.182 1.443V16.27c0 .607.052 1.083.156 1.43.104.347.338.78.702 1.3h-6.37c.312-.59.529-1.075.65-1.456a6.37 6.37 0 0 0 .13-.585c.035-.2.052-.429.052-.689v-5.356h-5.46v5.356c0 .832.286 1.742.858 2.73H41.83c.347-.485.59-.91.728-1.274.121-.399.182-.884.182-1.456zM60.904.254H74.71l-1.014 3.77c-.832-.416-1.469-.706-1.911-.871-.442-.165-1.183-.247-2.223-.247v13.338c0 .607.048 1.07.143 1.391.095.32.334.776.715 1.365h-6.37c.312-.433.529-.823.65-1.17s.182-.867.182-1.56V2.984c-1.352 0-2.275.095-2.769.286-.494.19-1.287.59-2.379 1.196l1.17-4.212zm16.032 16.068V2.958c0-.78-.234-1.681-.702-2.704h6.604c1.785 0 3.233.425 4.342 1.274 1.11.85 1.664 1.976 1.664 3.38 0 .832-.243 1.603-.728 2.314a3.406 3.406 0 0 1-.78.936c-.243.243-.702.572-1.378.988l.962.416c.763.399 1.374.988 1.833 1.768.46.78.689 1.612.689 2.496 0 1.317-.377 2.375-1.131 3.172-.754.797-1.482 1.33-2.184 1.599-.702.269-1.651.403-2.847.403h-7.098c.139-.295.26-.563.364-.806.052-.121.13-.347.234-.676.104-.33.156-.728.156-1.196zm4.68.234c1.352 0 2.21-.316 2.574-.949a4.172 4.172 0 0 0 .546-2.119c0-.485-.078-1.027-.234-1.625-.156-.598-.342-1.049-.559-1.352a2.09 2.09 0 0 0-.897-.702c-.381-.165-.858-.247-1.43-.247v6.994zm0-7.852c.537 0 .927-.052 1.17-.156.243-.104.546-.42.91-.949.364-.529.546-1.209.546-2.041 0-.572-.126-1.114-.377-1.625-.251-.511-.498-.815-.741-.91a3.215 3.215 0 0 0-.78-.195l-.468-.026h-.26v5.902zm10.338 6.63l4.654-11.96.494-1.508c.035-.121.1-.39.195-.806.095-.416.152-.685.169-.806h4.368c.26 1.317.52 2.349.78 3.094l3.822 11.518c.295.901.568 1.59.819 2.067.251.477.698 1.166 1.339 2.067h-6.396l.13-1.17c0-.312-.009-.546-.026-.702a5.517 5.517 0 0 0-.182-.78l-.832-2.574h-4.264l-.754 2.08a5.209 5.209 0 0 0-.312 1.794L96.062 19h-6.396a18.004 18.004 0 0 0 1.378-1.768c.277-.433.58-1.066.91-1.898zm5.512-4.524h3.432L99.26 4.778l-1.794 6.032zm26.25-5.538c-.884-1.127-1.69-1.915-2.418-2.366-.728-.45-1.577-.676-2.548-.676-1.439 0-2.66.702-3.666 2.106-1.005 1.404-1.508 3.155-1.508 5.252 0 2.028.52 3.718 1.56 5.07.537.659 1.131 1.153 1.781 1.482.65.33 1.391.494 2.223.494.97 0 1.794-.204 2.47-.611.676-.407 1.439-1.14 2.288-2.197l-.546 4.16c-1.075.468-1.95.789-2.626.962-.676.173-1.534.26-2.574.26-2.808 0-5.105-.88-6.89-2.639-1.785-1.76-2.678-4.034-2.678-6.825 0-2.79.966-5.109 2.899-6.955S115.89.02 118.906.02c1.404 0 2.955.295 4.654.884l.156 4.368zm8.882-5.018a35.93 35.93 0 0 1-.364.702c-.156.295-.26.52-.312.676a4.089 4.089 0 0 0-.182 1.196v5.824l3.796-5.408a5.39 5.39 0 0 0 .637-1.287c.147-.442.256-1.01.325-1.703h6.942c-.59.347-1.066.659-1.43.936-.26.225-.58.59-.962 1.092l-4.732 6.448 4.628 7.722c.45.693.867 1.213 1.248 1.56.347.277.953.607 1.82.988h-7.826l.182-.962c0-.52-.208-1.135-.624-1.846L131.74 9.51v6.76c0 .52.052.962.156 1.326.104.364.338.832.702 1.404h-6.344c.295-.433.503-.84.624-1.222.121-.381.182-.884.182-1.508V2.854c0-.503-.048-.923-.143-1.261-.095-.338-.316-.784-.663-1.339h6.344zM12.09 35.142c-.97-.815-1.803-1.391-2.496-1.729-.693-.338-1.352-.507-1.976-.507-.641 0-1.157.169-1.547.507-.39.338-.585.802-.585 1.391 0 .416.104.78.312 1.092.208.312.477.58.806.806l1.768 1.066 1.69 1.092c1.768 1.248 2.652 2.843 2.652 4.784 0 .555-.095 1.11-.286 1.664-.19.555-.689 1.343-1.495 2.366-.806 1.023-2.552 1.534-5.239 1.534-.815 0-1.49-.052-2.028-.156-.537-.104-1.265-.312-2.184-.624V43.93c.85.85 1.569 1.447 2.158 1.794.624.33 1.291.494 2.002.494.641 0 1.157-.16 1.547-.481.39-.32.585-.75.585-1.287 0-.503-.178-.97-.533-1.404-.355-.433-1.001-.945-1.937-1.534l-1.794-1.17C1.673 39.025.754 37.387.754 35.428c0-1.543.667-2.825 2.002-3.848 1.335-1.023 3.033-1.534 5.096-1.534 1.179 0 2.522.286 4.03.858l.208 4.238zm9.48-4.888c-.121.225-.234.442-.338.65a4.565 4.565 0 0 0-.273.689 6.556 6.556 0 0 0-.169.637 3.23 3.23 0 0 0-.052.624v10.53c0 1.924.85 2.886 2.548 2.886a2.92 2.92 0 0 0 1.274-.273 3.747 3.747 0 0 0 1.04-.741c.312-.312.477-.58.494-.806V32.854c0-.503-.052-.919-.156-1.248-.104-.33-.338-.78-.702-1.352h6.318c-.312.572-.52 1.027-.624 1.365-.104.338-.156.767-.156 1.287v13.39c0 .468.052.893.156 1.274.104.381.312.858.624 1.43h-5.538l.208-.702.052-.832c-.85.624-1.603 1.075-2.262 1.352a6.314 6.314 0 0 1-2.106.338c-1.855 0-3.289-.572-4.303-1.716-1.014-1.144-1.521-2.739-1.521-4.784v-9.802c0-.537-.052-.966-.156-1.287-.104-.32-.347-.758-.728-1.313h6.37zm17.02 0c0 .364.017.598.052.702.035.104.147.277.338.52l5.148 6.552 5.2-6.656.156-.208.104-.13c.139-.225.208-.485.208-.78h4.992l-1.482 1.95v14.092c0 .607.052 1.075.156 1.404.104.33.347.763.728 1.3h-6.084c.295-.433.511-.832.65-1.196.104-.364.156-.875.156-1.534v-8.788l-4.758 6.006-4.784-6.084v8.866c0 .537.052.988.156 1.352.104.364.33.823.676 1.378h-6.136c.364-.468.607-.88.728-1.235.121-.355.182-.862.182-1.521V32.152l-1.482-1.898h5.096zm22.74 0c0 .364.017.598.052.702.035.104.147.277.338.52l5.148 6.552 5.2-6.656.156-.208.104-.13c.139-.225.208-.485.208-.78h4.992l-1.482 1.95v14.092c0 .607.052 1.075.156 1.404.104.33.347.763.728 1.3h-6.084c.295-.433.511-.832.65-1.196.104-.364.156-.875.156-1.534v-8.788l-4.758 6.006-4.784-6.084v8.866c0 .537.052.988.156 1.352.104.364.33.823.676 1.378h-6.136c.364-.468.607-.88.728-1.235.121-.355.182-.862.182-1.521V32.152l-1.482-1.898h5.096zm24.56 0c-.312.52-.546.988-.702 1.404a3.658 3.658 0 0 0-.208 1.248v13.39c0 .884.295 1.785.884 2.704h-6.448c.347-.503.585-.949.715-1.339s.195-.845.195-1.365V32.854c0-.572-.056-1.018-.169-1.339-.113-.32-.368-.741-.767-1.261h6.5zm2.486 0h13.806l-1.014 3.77c-.832-.416-1.469-.706-1.911-.871-.442-.165-1.183-.247-2.223-.247v13.338c0 .607.048 1.07.143 1.391.095.32.334.776.715 1.365h-6.37c.312-.433.529-.823.65-1.17s.182-.867.182-1.56V32.984c-1.352 0-2.275.095-2.769.286-.494.19-1.287.59-2.379 1.196l1.17-4.212z" fill="#000" fill-rule="nonzero"/></svg>